<?xml version="1.0" standalone="no"?>
<!DOCTYPE svg PUBLIC "-//W3C//DTD SVG 20010904//EN"
 "http://www.w3.org/TR/2001/REC-SVG-20010904/DTD/svg10.dtd">
<svg version="1.0" xmlns="http://www.w3.org/2000/svg"
 width="722.000000pt" height="1024.000000pt" viewBox="0 0 722.000000 1024.000000"
 preserveAspectRatio="xMidYMid meet">

<g transform="translate(0.000000,1024.000000) scale(0.100000,-0.100000)"
fill="#000000" stroke="none">
<path d="M3470 10229 c-700 -87 -1186 -729 -1075 -1418 9 -52 12 -97 8 -101
-4 -3 -53 -23 -108 -44 -141 -54 -399 -181 -540 -266 -489 -296 -901 -701
-1205 -1185 -102 -162 -252 -466 -319 -647 -383 -1030 -278 -2180 284 -3113
147 -245 300 -443 513 -667 110 -116 133 -146 146 -188 16 -52 10 -91 -18
-135 -9 -13 -66 -55 -128 -93 -62 -39 -142 -96 -178 -126 -333 -282 -460 -732
-322 -1138 29 -84 83 -191 103 -203 24 -15 4 -25 -51 -25 l-60 0 0 -69 c0 -68
-1 -70 -35 -91 -42 -26 -86 -81 -112 -140 -25 -56 -40 -69 -100 -84 l-48 -12
-3 -242 -2 -242 3390 0 3390 0 -2 242 -3 242 -48 12 c-60 15 -75 28 -100 84
-26 59 -70 114 -112 140 -34 21 -35 23 -35 91 l0 69 -61 0 -60 0 26 43 c110
176 161 416 136 634 -28 245 -133 458 -312 634 -74 73 -127 112 -286 212 -81
51 -106 89 -105 153 0 62 23 95 155 233 208 217 365 422 509 661 633 1052 685
2363 137 3462 -393 790 -1065 1412 -1878 1739 -165 67 -152 49 -133 182 96
642 -347 1260 -988 1381 -105 20 -276 27 -370 15z m382 -263 c180 -46 342
-140 469 -273 123 -129 205 -274 250 -443 20 -72 23 -110 23 -245 0 -164 -14
-251 -59 -359 -9 -21 -15 -39 -13 -40 2 -2 57 -20 123 -40 165 -52 275 -96
445 -178 360 -172 652 -379 941 -668 562 -562 895 -1255 991 -2065 19 -165 16
-587 -5 -760 -99 -780 -419 -1443 -977 -2018 -75 -78 -146 -160 -157 -182 -63
-124 -49 -250 36 -348 18 -20 83 -70 144 -111 151 -100 238 -175 317 -272 128
-159 184 -314 183 -504 -1 -321 -148 -559 -443 -719 l-75 -41 237 0 237 0 3
-41 c3 -40 5 -42 54 -60 61 -23 77 -39 118 -121 22 -44 45 -73 79 -98 l47 -35
0 -77 0 -78 -3210 0 -3210 0 0 78 0 77 48 35 c33 25 56 54 78 98 41 82 57 98
118 121 49 18 51 20 54 60 l3 41 240 0 239 0 -87 46 c-229 119 -360 269 -415
473 -29 108 -29 323 1 436 60 228 186 382 473 576 176 120 223 185 222 309 -1
120 -26 164 -194 335 -222 227 -361 403 -505 640 -246 405 -403 848 -471 1331
-22 159 -30 582 -14 757 94 1038 653 1974 1525 2552 283 188 602 338 900 425
44 13 81 24 83 26 2 1 -4 19 -13 40 -45 108 -59 195 -59 359 0 135 3 173 23
245 45 169 127 314 250 443 153 160 360 266 583 297 98 14 264 3 370 -24z"/>
<path d="M3470 9928 c-97 -13 -249 -69 -342 -124 -149 -89 -289 -246 -364
-409 -64 -139 -79 -211 -79 -390 0 -137 4 -172 23 -240 90 -312 314 -548 614
-646 96 -32 100 -34 63 -37 -442 -30 -938 -204 -1320 -462 -226 -153 -501
-412 -659 -622 -49 -65 -98 -121 -110 -125 -11 -3 -49 -6 -83 -5 -72 2 -101
-16 -133 -81 -11 -23 -28 -54 -37 -68 -10 -14 -28 -41 -40 -59 -24 -36 -24
-36 -41 31 -9 33 -7 40 16 63 14 14 23 28 20 32 -4 3 -27 -14 -51 -37 -24 -24
-56 -55 -72 -69 -25 -22 -27 -28 -21 -80 3 -30 7 -68 8 -85 2 -16 6 -32 10
-35 6 -5 -11 -83 -27 -121 -5 -14 0 -15 56 -3 34 7 70 21 80 31 10 10 25 45
34 77 15 61 26 76 57 76 9 0 20 5 23 10 3 6 1 10 -5 10 -6 0 1 13 17 29 16 15
37 47 47 70 11 22 25 41 33 41 7 0 13 -2 13 -4 0 -2 -31 -66 -69 -142 -130
-262 -216 -535 -262 -835 -33 -208 -33 -590 0 -798 92 -596 344 -1103 761
-1535 114 -119 122 -129 53 -67 -46 40 -83 71 -83 68 0 -13 400 -408 453 -447
32 -24 95 -63 140 -87 l82 -44 -42 3 c-47 4 -50 0 -29 -40 22 -43 61 -73 118
-93 29 -9 54 -23 56 -29 3 -7 -8 -5 -27 5 -18 9 -55 19 -82 22 -44 5 -51 9
-63 38 -20 47 -73 103 -112 117 -19 6 -34 17 -34 23 0 21 -59 104 -86 121 -14
10 -48 21 -75 24 l-48 6 15 -35 c20 -47 47 -75 92 -94 56 -23 89 -38 70 -33
-24 7 -23 -11 2 -52 l20 -32 -28 6 c-15 3 -36 8 -47 12 -11 3 -34 4 -51 3 -22
-2 -33 3 -38 15 -10 26 2 30 35 12 34 -20 36 -11 9 40 -39 73 -73 101 -139
111 -29 5 -51 4 -51 -1 0 -21 32 -67 62 -92 45 -36 45 -36 74 -80 14 -21 28
-51 31 -67 9 -44 56 -79 107 -79 23 0 68 -9 100 -20 40 -15 86 -21 152 -22 94
-2 95 -2 72 -20 l-23 -18 35 8 c74 15 530 0 530 -18 0 -9 -87 -37 -155 -49
-96 -18 -251 -23 -375 -12 l-125 11 -150 75 c-198 98 -286 158 -368 249 -68
76 -71 94 -10 56 l32 -19 -5 52 c-9 80 -21 103 -67 125 -23 10 -54 22 -68 25
-21 5 -28 15 -33 42 -4 19 -11 35 -15 35 -5 0 -4 -17 1 -37 5 -21 13 -63 17
-93 3 -30 10 -61 15 -68 6 -10 1 -11 -21 -6 -47 11 -135 61 -209 119 -94 75
-114 88 -119 83 -2 -2 33 -34 78 -70 45 -36 186 -150 312 -253 252 -206 368
-287 490 -345 270 -127 504 -142 701 -45 85 42 104 45 49 9 -22 -15 -69 -53
-105 -84 -36 -32 -88 -72 -115 -89 -65 -41 -188 -79 -238 -73 -49 6 -79 -15
-122 -83 -29 -44 -41 -54 -67 -58 -18 -2 -1 -5 37 -6 39 -1 83 -2 99 -3 31 -1
70 35 111 103 11 19 28 35 38 37 17 3 17 2 1 -35 -20 -45 -29 -106 -19 -131 4
-9 7 -29 6 -44 -1 -14 7 -44 18 -67 27 -53 27 -97 0 -111 -11 -7 -23 -9 -25
-7 -3 3 -8 30 -11 61 -3 31 -9 56 -12 56 -4 0 -30 -22 -59 -48 -57 -53 -60
-65 -40 -153 12 -51 12 -52 -17 -75 -20 -16 -25 -24 -14 -24 9 0 32 18 52 40
45 50 63 51 71 2 8 -51 8 -64 -3 -58 -12 8 -37 -33 -50 -82 -8 -30 -8 -54 0
-89 15 -66 17 -104 8 -130 -5 -12 -3 -50 3 -83 10 -58 9 -63 -13 -86 -37 -40
-11 -41 29 -1 20 20 52 50 71 66 38 31 40 46 26 153 l-8 57 -40 -34 c-22 -19
-44 -35 -48 -35 -5 0 6 23 23 50 31 50 39 102 27 179 -3 19 5 31 41 56 l45 32
23 -49 22 -49 -40 -56 c-22 -31 -40 -66 -40 -78 0 -12 14 -50 31 -83 31 -60
31 -62 14 -88 -11 -18 -14 -29 -6 -33 5 -4 15 -30 21 -59 15 -68 30 -79 152
-106 19 -4 28 -14 33 -36 4 -16 11 -30 16 -30 12 0 3 35 -15 65 -7 11 -16 40
-19 65 -7 54 -42 86 -103 96 -61 9 -66 14 -53 55 7 19 22 45 35 59 39 42 40
77 5 142 -47 88 -37 93 13 6 85 -148 146 -226 259 -328 61 -55 134 -116 163
-136 l53 -37 491 0 490 0 55 37 c29 21 105 84 167 140 128 117 198 210 289
391 l55 111 45 -32 c35 -25 43 -36 40 -55 -12 -77 -4 -129 27 -179 17 -27 28
-50 23 -50 -4 0 -26 16 -49 36 l-42 36 0 -34 c0 -18 -5 -50 -10 -70 -13 -47 6
-99 47 -124 15 -10 42 -34 60 -54 17 -19 34 -32 39 -27 4 4 -3 18 -16 32 -22
24 -23 28 -12 86 6 33 7 70 3 82 -9 26 -6 77 8 132 16 63 -22 187 -52 168 -7
-4 -8 7 -4 33 4 21 7 45 7 52 0 24 32 11 67 -28 20 -22 43 -40 52 -40 10 0 7
8 -13 28 -25 27 -26 32 -17 73 20 84 16 99 -41 151 -58 54 -70 58 -67 26 1
-13 -2 -42 -6 -65 -7 -41 -8 -42 -31 -26 -30 19 -31 59 -3 115 12 24 19 53 17
70 -3 16 -1 31 4 34 15 9 8 88 -12 132 -18 40 -18 43 -2 40 9 -2 26 -18 37
-37 41 -68 80 -104 111 -103 16 1 61 2 99 3 39 1 55 4 37 6 -26 4 -38 14 -67
58 -43 68 -73 89 -122 83 -50 -6 -173 32 -238 73 -27 17 -79 57 -115 89 -36
31 -83 69 -105 84 -55 36 -36 33 49 -9 200 -99 433 -82 711 51 130 62 198 110
535 384 166 135 312 253 323 262 12 10 17 18 11 18 -6 0 -43 -26 -82 -57 -39
-32 -95 -73 -126 -92 -86 -51 -176 -77 -138 -39 7 7 12 22 12 35 0 19 21 37
100 89 110 71 124 78 189 94 55 14 91 49 91 90 0 17 9 49 21 71 11 22 18 46
16 52 -3 7 -12 -5 -21 -26 -10 -23 -23 -37 -34 -37 -10 0 -42 -7 -71 -16 -56
-16 -74 -40 -86 -116 -5 -33 -10 -38 -52 -52 -54 -19 -143 -74 -143 -89 0 -6
-3 -8 -6 -5 -3 4 -1 15 4 25 15 29 23 73 13 73 -5 0 -12 -15 -15 -34 -6 -31
-12 -36 -62 -52 -68 -21 -104 -60 -104 -112 0 -20 -3 -47 -6 -60 l-7 -23 34
20 c64 39 61 21 -11 -57 -86 -94 -168 -149 -365 -247 l-150 -75 -125 -11
c-124 -11 -279 -6 -375 12 -68 12 -155 40 -155 49 0 18 456 33 530 18 l35 -8
-24 19 c-24 18 -23 18 72 19 68 1 112 7 153 22 32 11 75 20 96 20 20 0 48 5
62 11 23 11 56 62 56 88 0 10 42 79 57 93 5 4 23 20 41 34 30 25 62 71 62 92
0 5 -22 6 -51 1 -66 -10 -100 -38 -139 -111 -27 -51 -25 -60 9 -40 33 18 45
14 35 -12 -5 -12 -16 -17 -38 -15 -28 2 -52 -2 -109 -18 -16 -4 -16 -2 3 29
25 41 26 59 3 52 -10 -2 -7 0 7 6 113 51 130 64 154 121 l15 35 -48 -6 c-27
-3 -61 -14 -75 -24 -28 -18 -86 -101 -86 -122 0 -6 -11 -15 -24 -18 -38 -9
-85 -54 -111 -106 -23 -45 -26 -47 -74 -53 -27 -3 -65 -14 -83 -23 -26 -14
-30 -14 -21 -2 7 8 31 20 52 27 47 14 96 52 116 92 22 41 19 45 -27 41 l-43
-3 82 44 c45 24 108 63 140 87 53 40 453 434 453 447 0 3 -39 -30 -87 -73 -80
-70 -76 -65 43 57 72 74 159 170 194 214 167 206 347 520 435 758 128 349 183
687 172 1062 -13 410 -103 776 -280 1135 -40 80 -73 148 -75 153 -2 4 3 7 12
7 8 0 24 -20 35 -45 11 -25 32 -56 47 -70 15 -14 21 -25 15 -25 -7 0 -9 -4 -6
-10 3 -5 14 -10 23 -10 31 0 42 -15 57 -76 9 -32 24 -67 34 -77 10 -10 46 -24
80 -31 56 -12 61 -11 55 3 -3 9 -10 33 -15 55 -6 21 -14 47 -20 57 -7 14 -6
17 3 14 8 -3 14 5 15 22 1 16 5 54 9 86 l7 59 -73 69 c-40 39 -75 67 -78 64
-3 -3 6 -17 20 -31 23 -23 25 -30 16 -63 -17 -67 -18 -67 -41 -31 -49 76 -68
106 -81 136 -24 54 -60 74 -129 72 -84 -2 -100 5 -144 65 -127 176 -348 411
-513 544 -390 313 -873 522 -1360 587 -63 9 -133 17 -155 18 -37 3 -33 5 63
37 300 98 524 334 614 646 19 68 23 103 23 240 0 137 -4 172 -23 239 -50 173
-129 306 -257 431 -206 201 -494 294 -785 253z m385 -37 c168 -50 344 -162
448 -283 164 -192 247 -458 219 -698 -26 -219 -113 -401 -267 -555 -180 -179
-388 -265 -645 -265 -252 0 -467 87 -641 260 -158 156 -243 332 -271 556 -24
201 32 436 145 604 117 174 288 303 488 369 108 35 147 40 304 37 116 -3 166
-9 220 -25z m65 -1832 c406 -44 840 -199 1190 -427 321 -208 644 -537 843
-860 576 -931 548 -2111 -71 -3012 -207 -301 -513 -593 -822 -785 -131 -81
-368 -195 -506 -244 -329 -117 -599 -163 -944 -163 -447 0 -815 85 -1215 282
-295 145 -493 287 -731 524 -313 314 -522 649 -666 1066 -196 574 -187 1256
27 1836 48 130 179 396 250 509 217 342 547 671 884 879 385 238 827 377 1301
410 82 6 352 -3 460 -15z m-2687 -1219 c10 -9 -16 -63 -44 -91 -22 -22 -109
-28 -109 -6 0 24 46 92 70 104 25 13 67 9 83 -7z m67 16 c0 -3 -19 -34 -41
-70 -27 -44 -48 -66 -60 -66 -18 0 -18 1 1 20 10 10 31 42 45 70 14 27 32 50
40 50 8 0 15 -2 15 -4z m4675 -46 c14 -28 35 -60 45 -70 19 -19 19 -20 1 -20
-12 0 -32 22 -57 62 -49 78 -49 78 -30 78 9 0 27 -22 41 -50z m117 23 c21 -18
57 -90 50 -98 -10 -10 -89 -5 -104 8 -17 13 -58 76 -58 90 0 13 44 26 70 21
14 -3 33 -12 42 -21z m-4929 -120 c-7 -2 -21 -2 -30 0 -10 3 -4 5 12 5 17 0
24 -2 18 -5z m4930 0 c-7 -2 -21 -2 -30 0 -10 3 -4 5 12 5 17 0 24 -2 18 -5z
m-5139 -44 c13 -67 7 -90 -31 -126 l-37 -35 -13 43 c-18 63 -16 84 13 118 34
41 60 40 68 0z m184 22 c12 -7 11 -14 -3 -40 -29 -56 -50 -71 -104 -71 l-50 0
15 38 c21 50 58 82 97 82 18 0 38 -4 45 -9z m5046 -13 c14 -13 32 -40 40 -60
l15 -38 -44 0 c-62 0 -73 7 -100 60 -27 53 -24 58 32 59 20 1 41 -7 57 -21z
m150 -9 c29 -34 31 -55 13 -118 l-14 -44 -36 37 c-38 38 -44 60 -31 125 8 40
34 41 68 0z m-5294 -109 l25 0 -26 -13 c-14 -8 -45 -16 -68 -20 l-43 -5 23 24
c16 17 30 23 44 20 11 -3 31 -6 45 -6z m5229 -14 l23 -24 -43 5 c-23 4 -54 12
-67 19 l-25 13 34 4 c19 2 39 5 45 5 6 1 21 -9 33 -22z m-5349 -29 c0 -2 -10
-12 -22 -23 l-23 -19 19 23 c18 21 26 27 26 19z m85 -39 c-17 -76 -50 -108
-112 -108 -19 0 -24 4 -19 16 3 9 6 26 6 39 0 13 12 37 26 54 21 25 33 31 66
31 39 0 40 0 33 -32z m5309 1 c14 -17 26 -41 26 -54 0 -13 3 -30 6 -39 5 -12
0 -16 -19 -16 -62 0 -95 32 -112 108 -7 32 -6 32 33 32 33 0 45 -6 66 -31z
m-295 -3240 c-13 -34 -46 -53 -101 -62 -42 -6 -44 -3 -28 55 12 42 31 56 93
66 36 7 42 5 45 -11 2 -10 -2 -32 -9 -48z m-4203 -31 l29 -33 -32 29 c-18 17
-33 31 -33 33 0 8 8 1 36 -29z m3614 19 c0 -2 -12 -14 -27 -28 l-28 -24 24 28
c23 25 31 32 31 24z m-3351 -216 c28 -19 49 -36 47 -39 -10 -10 -231 151 -266
193 -8 10 26 -13 76 -51 50 -39 114 -85 143 -103z m3286 160 c-18 -31 -260
-209 -270 -199 -3 2 39 34 93 71 53 37 115 83 137 102 42 36 50 41 40 26z
m-3355 -145 c35 -26 100 -65 145 -86 44 -21 132 -70 195 -108 214 -129 310
-167 455 -182 50 -5 119 -17 155 -25 36 -9 128 -29 205 -45 164 -32 222 -55
312 -122 l66 -48 -158 0 c-153 0 -158 1 -141 18 15 18 15 20 -1 35 -45 40
-145 53 -245 32 -40 -8 -81 -15 -91 -15 -9 0 -54 -17 -100 -39 -106 -50 -160
-62 -273 -62 -191 1 -407 74 -599 204 -58 40 -455 355 -455 362 0 4 97 -33
131 -50 15 -8 58 -49 96 -91 46 -52 95 -92 153 -128 126 -78 247 -142 325
-172 68 -27 75 -28 290 -28 177 -1 233 3 288 17 76 19 167 56 167 67 0 10
-283 30 -423 30 -76 0 -116 4 -112 10 4 6 -11 10 -37 11 -31 0 -38 3 -23 8 16
7 12 10 -25 24 -25 8 -36 16 -25 16 11 1 48 -12 83 -29 60 -28 75 -28 50 -1
-11 11 -10 13 2 9 97 -33 125 -39 165 -36 l46 3 -126 84 c-70 46 -184 114
-254 150 -138 72 -261 163 -356 262 l-60 62 55 -45 c30 -25 84 -66 120 -92z
m3315 73 c-97 -99 -213 -184 -356 -260 -74 -39 -189 -108 -257 -153 l-123 -81
46 -3 c39 -3 100 10 165 35 12 4 13 3 3 -8 -27 -27 -11 -27 50 1 34 17 71 30
82 29 11 0 0 -8 -25 -16 -37 -14 -41 -17 -25 -24 15 -5 8 -8 -23 -8 -26 -1
-41 -5 -37 -11 4 -6 -36 -10 -112 -10 -140 0 -423 -20 -423 -30 0 -11 91 -48
167 -67 55 -14 111 -18 288 -17 215 0 222 1 290 28 171 66 397 208 479 301 32
36 68 73 81 81 23 15 145 65 145 59 0 -7 -396 -322 -455 -362 -194 -131 -406
-204 -597 -203 -117 0 -185 15 -273 60 -75 39 -246 73 -320 64 -60 -8 -94 -20
-118 -41 -16 -15 -16 -17 -1 -35 17 -17 12 -18 -141 -18 l-158 0 66 48 c90 67
148 90 312 122 77 16 169 36 205 45 36 8 106 20 155 25 145 15 241 53 455 182
63 38 152 87 197 109 75 36 260 165 292 203 8 9 16 16 19 16 4 0 -20 -27 -53
-61z m-3670 -78 c36 -21 55 -54 55 -100 0 -27 -3 -32 -12 -23 -7 7 -18 12 -26
12 -51 0 -102 52 -102 104 0 41 21 43 85 7z m3991 -7 c1 -16 -3 -39 -9 -51
-10 -22 -62 -53 -89 -53 -8 0 -20 -6 -27 -12 -10 -11 -11 -4 -6 37 9 60 18 73
70 96 50 23 60 20 61 -17z m-3701 -38 c42 -18 105 -99 81 -104 -44 -9 -159 79
-141 108 8 13 19 13 60 -4z m3390 4 c18 -29 -97 -117 -141 -108 -13 2 -10 11
16 46 39 54 109 88 125 62z m-3488 -56 c28 -17 78 -83 70 -91 -13 -13 -97 30
-127 64 -25 28 -29 38 -18 44 15 10 43 3 75 -17z m3601 17 c10 -6 7 -15 -14
-41 -37 -44 -134 -88 -134 -61 0 17 81 100 103 104 12 2 24 5 27 5 3 1 11 -2
18 -7z m-3318 -147 c40 -34 67 -84 46 -84 -42 0 -113 48 -137 93 -16 29 53 23
91 -9z m390 -20 c47 -21 132 -55 190 -75 120 -43 120 -47 0 -19 -82 20 -243
91 -285 125 -24 20 -14 17 95 -31z m2275 30 c-46 -35 -206 -105 -285 -124
-120 -28 -120 -24 0 19 58 20 148 56 200 79 106 46 114 48 85 26z m386 -1
c-24 -45 -95 -93 -137 -93 -13 0 -12 5 3 31 28 49 70 79 109 79 30 0 33 -2 25
-17z m-2853 -59 c49 -54 53 -69 15 -59 -41 10 -90 42 -113 74 -45 64 37 51 98
-15z m2676 48 c2 -4 -7 -23 -21 -41 -34 -43 -133 -90 -133 -63 0 15 73 94 94
102 27 11 54 12 60 2z m-2511 -114 c48 -32 87 -61 87 -64 0 -8 -71 7 -128 28
-37 14 -57 28 -67 49 -9 16 -30 46 -48 66 l-32 37 50 -29 c28 -15 89 -55 138
-87z m2388 77 c-17 -19 -37 -48 -46 -64 -10 -21 -30 -35 -67 -49 -57 -21 -128
-36 -128 -28 0 9 255 176 269 176 1 0 -11 -16 -28 -35z m-2856 -5 c24 -9 32
-22 49 -77 7 -22 5 -23 -44 -23 -44 0 -56 4 -81 29 -17 17 -29 40 -29 55 0 24
4 26 39 26 22 0 51 -4 66 -10z m3275 -17 c-1 -53 -43 -83 -115 -83 -43 0 -46
1 -39 23 23 75 37 85 112 86 39 1 42 -1 42 -26z m-3151 -33 c9 0 28 -8 41 -17
14 -10 45 -28 70 -40 l45 -21 -60 -1 c-53 0 -130 11 -140 21 -2 1 -13 26 -24
55 l-20 52 36 -25 c20 -13 43 -24 52 -24z m2989 -4 c-11 -30 -28 -58 -37 -61
-9 -4 -54 -9 -101 -11 l-85 -5 46 24 c25 13 57 31 70 40 13 10 31 17 40 17 9
0 31 11 50 24 19 13 35 25 35 25 1 1 -7 -23 -18 -53z m-1687 -153 c22 -26 90
-73 107 -73 13 0 13 3 -1 18 -10 10 -17 28 -17 40 0 21 5 22 70 22 65 0 70 -1
70 -22 0 -12 -7 -30 -17 -40 -14 -15 -14 -18 -1 -18 17 0 85 47 107 73 9 12
29 17 65 17 l51 -1 -47 -23 c-26 -12 -71 -41 -100 -63 -69 -53 -90 -63 -128
-63 -38 0 -59 10 -125 60 -27 21 -72 50 -100 64 l-50 25 51 1 c36 0 56 -5 65
-17z m75 -18 c2 -20 -1 -23 -15 -15 -10 5 -23 16 -31 24 -11 14 -9 16 16 16
24 0 29 -5 30 -25z m214 9 c-8 -8 -21 -19 -30 -24 -14 -8 -17 -5 -17 15 0 21
4 25 29 25 26 0 29 -2 18 -16z m-654 -54 c-37 -5 -62 -13 -68 -23 -5 -9 -15
-14 -23 -11 -10 4 -15 0 -15 -10 0 -15 -2 -15 -23 -1 -22 14 -27 13 -88 -26
-35 -23 -97 -73 -136 -112 -40 -39 -73 -66 -73 -61 0 16 20 36 98 103 133 112
217 151 327 149 l60 -1 -59 -7z m1155 -6 c74 -22 124 -52 221 -136 84 -72 98
-86 98 -102 0 -5 -33 22 -72 61 -40 39 -102 89 -137 112 -61 39 -66 40 -88 26
-21 -14 -23 -14 -23 1 0 8 -6 14 -12 11 -7 -2 -18 3 -24 11 -6 8 -37 18 -70
22 l-59 7 56 2 c30 0 80 -6 110 -15z m-1033 -20 c47 -13 18 -44 -51 -53 -64
-9 -97 -32 -97 -70 0 -24 -1 -24 -17 -8 -12 12 -16 30 -14 69 1 29 5 56 7 60
6 9 139 10 172 2z m984 -55 c2 -48 -1 -64 -14 -76 -17 -15 -18 -14 -18 9 0 37
-33 60 -97 69 -50 7 -72 19 -73 41 0 11 31 16 117 17 l81 1 4 -61z m-1236 16
c13 -34 -5 -64 -46 -75 -50 -13 -70 -43 -77 -114 -3 -31 -11 -60 -17 -65 -6
-4 -34 -16 -63 -25 -55 -18 -127 -64 -155 -100 l-17 -21 -10 28 c-6 16 -11 33
-11 38 0 5 -4 9 -10 9 -5 0 -10 -6 -10 -12 0 -7 -11 -26 -25 -43 -21 -26 -24
-27 -24 -10 -1 38 20 108 40 136 15 22 99 79 115 79 7 0 -21 -56 -48 -97 -30
-45 -33 -53 -18 -53 5 0 30 31 55 69 50 76 155 180 237 236 58 38 76 43 84 20z
m54 -40 c0 -21 -3 -26 -9 -16 -5 7 -13 11 -18 8 -6 -4 -5 8 1 28 12 38 26 28
26 -20z m1231 11 c13 -14 11 -29 -2 -20 -6 3 -15 0 -20 -7 -11 -18 -12 31 -2
58 7 17 8 17 11 -2 2 -11 8 -24 13 -29z m107 9 c81 -55 187 -160 238 -236 25
-38 50 -69 55 -69 14 0 11 8 -19 53 -27 41 -55 97 -48 97 16 0 100 -57 115
-79 20 -28 41 -98 40 -136 0 -17 -3 -16 -24 10 -14 17 -25 36 -25 43 0 24 -19
11 -25 -18 -6 -29 -25 -52 -25 -31 0 19 -112 90 -175 111 l-62 21 -6 60 c-7
75 -26 105 -77 119 -41 11 -59 41 -46 75 8 23 26 18 84 -20z m-217 -32 c16
-16 20 -28 15 -47 l-6 -26 -530 0 c-516 0 -529 0 -535 20 -8 25 10 59 38 70
12 5 240 8 509 7 485 -2 488 -2 509 -24z m-1171 -79 c-7 -65 -41 -104 -90
-104 -27 0 -28 1 -23 43 8 61 27 92 65 104 54 18 55 17 48 -43z m101 -11 c5
-13 9 -45 9 -70 0 -45 0 -46 -20 -28 -28 26 -60 96 -60 134 l0 32 31 -21 c17
-13 35 -33 40 -47z m1155 -28 c-9 -23 -28 -53 -42 -66 l-26 -24 4 64 c4 59 8
67 39 93 l34 29 3 -27 c2 -15 -4 -46 -12 -69z m107 76 c26 -10 42 -44 51 -103
5 -36 3 -38 -24 -38 -49 0 -83 38 -90 104 -7 63 -6 63 63 37z m-1339 -118
c-10 -7 -24 -13 -31 -13 -11 0 -11 4 1 22 9 12 16 32 16 43 1 17 4 15 17 -9
14 -27 14 -30 -3 -43z m306 43 c0 -14 -4 -36 -10 -50 -9 -25 -12 -26 -100 -26
l-90 0 0 28 c0 15 -3 37 -6 50 -6 22 -5 22 100 22 106 0 106 0 106 -24z m846
2 c-3 -13 -6 -35 -6 -50 l0 -28 -90 0 c-88 0 -91 1 -100 26 -6 14 -10 36 -10
50 0 24 0 24 106 24 105 0 106 0 100 -22z m140 -49 c17 -18 16 -19 -14 -8 -41
14 -45 22 -30 54 l12 27 8 -27 c4 -15 15 -36 24 -46z m-356 32 c0 -16 3 -36 6
-45 6 -14 -26 -16 -316 -16 -290 0 -322 2 -316 16 3 9 6 29 6 45 l0 29 310 0
310 0 0 -29z m-900 -46 c10 -12 10 -15 -4 -15 -9 0 -16 7 -16 15 0 8 2 15 4
15 2 0 9 -7 16 -15z m1200 0 c0 -8 -7 -15 -16 -15 -14 0 -14 3 -4 15 7 8 14
15 16 15 2 0 4 -7 4 -15z m-1246 -52 c-2 -26 -7 -56 -10 -65 -6 -21 -54 -48
-85 -48 -20 0 -21 4 -17 50 7 67 40 100 110 109 4 1 5 -20 2 -46z m1344 20
c27 -17 42 -52 42 -99 0 -27 -4 -34 -20 -34 -56 0 -84 35 -93 117 -5 42 -5 43
21 37 15 -4 37 -13 50 -21z m-1889 -22 c-32 -67 -76 -91 -136 -75 -22 6 -22 7
-7 38 32 61 53 76 110 76 l52 0 -19 -39z m2468 17 c11 -13 28 -37 37 -54 15
-31 15 -32 -7 -38 -60 -16 -104 8 -136 75 l-19 39 52 0 c42 0 57 -5 73 -22z
m-1835 -15 l11 -28 10 25 9 25 519 0 520 0 8 -30 8 -30 8 25 c9 30 22 40 53
40 19 0 22 -5 22 -37 0 -59 31 -100 87 -117 43 -13 -27 -15 -707 -15 -680 0
-750 2 -707 15 56 17 87 58 87 117 0 35 2 37 30 37 24 0 33 -6 42 -27z m-202
-3 c-6 -11 -14 -46 -18 -78 l-7 -57 -118 -3 c-98 -2 -117 0 -117 12 0 33 121
116 169 116 10 0 34 7 52 15 46 19 52 19 39 -5z m1537 5 c19 -8 44 -15 55 -15
47 0 168 -82 168 -115 0 -13 -16 -15 -117 -13 l-118 3 -7 57 c-4 32 -12 67
-18 78 -13 24 -10 24 37 5z m-1822 -128 c33 -57 32 -97 -1 -131 -27 -26 -27
-26 -41 -6 -25 36 -43 89 -36 107 6 18 44 73 49 73 2 0 15 -20 29 -43z m2145
-25 c10 -24 -4 -70 -33 -112 -14 -20 -14 -20 -41 6 -34 34 -34 74 0 132 l27
45 19 -24 c10 -13 23 -34 28 -47z m-1940 -22 c0 -6 9 -6 26 0 36 14 1589 13
1615 0 13 -7 19 -7 19 0 0 6 32 10 80 10 73 0 80 -2 80 -20 0 -20 -7 -20 -990
-20 -983 0 -990 0 -990 20 0 18 7 20 80 20 45 0 80 -4 80 -10z m-138 -67 c20
-18 24 -73 6 -91 -7 -7 -27 -12 -45 -12 -38 0 -54 23 -34 49 6 9 19 28 29 43
20 33 20 33 44 11z m138 -3 c24 -24 26 -57 3 -82 -34 -38 -103 -11 -103 40 0
56 61 81 100 42z m132 3 c22 -20 24 -66 2 -87 -23 -24 -70 -20 -88 6 -21 30
-20 54 4 78 24 24 57 26 82 3z m129 7 c22 -12 27 -78 7 -98 -16 -16 -60 -15
-82 1 -24 17 -24 62 -1 87 20 22 46 25 76 10z m141 -7 c39 -35 13 -103 -39
-103 -57 0 -82 61 -43 100 24 24 57 26 82 3z m132 1 c19 -18 21 -75 4 -92 -22
-22 -76 -15 -94 13 -38 58 42 128 90 79z m136 -4 c39 -39 14 -100 -41 -100
-35 0 -59 24 -59 57 0 57 61 82 100 43z m132 3 c22 -20 24 -66 2 -87 -23 -24
-70 -20 -88 6 -21 30 -20 54 4 78 24 24 57 26 82 3z m138 -3 c24 -24 25 -48 4
-78 -31 -44 -104 -20 -104 35 0 57 61 82 100 43z m132 3 c39 -35 13 -103 -39
-103 -57 0 -82 61 -43 100 24 24 57 26 82 3z m132 2 c42 -43 20 -105 -37 -105
-41 0 -57 15 -57 54 0 55 58 87 94 51z m136 -5 c39 -39 14 -100 -41 -100 -35
0 -59 24 -59 57 0 57 61 82 100 43z m132 3 c20 -18 24 -73 6 -91 -7 -7 -26
-12 -43 -12 -41 0 -55 16 -55 62 0 54 52 78 92 41z m138 -3 c24 -24 25 -48 4
-78 -31 -44 -104 -20 -104 35 0 57 61 82 100 43z m132 3 c39 -35 13 -103 -39
-103 -57 0 -82 61 -43 100 24 24 57 26 82 3z m100 -11 c10 -15 23 -34 29 -43
20 -26 4 -49 -34 -49 -41 0 -57 15 -57 54 0 26 23 66 39 66 3 0 14 -12 23 -28z
m-2181 -147 c-33 -71 -78 -71 -82 0 -4 57 1 70 38 103 l37 33 14 -47 c12 -42
11 -50 -7 -89z m2416 64 c11 -23 4 -101 -10 -115 -14 -14 -49 11 -67 49 -18
37 -19 47 -8 89 l12 48 30 -24 c17 -13 36 -34 43 -47z m-2344 -36 c-5 -11 -3
-14 6 -8 18 11 31 -13 31 -58 0 -72 -81 -120 -94 -56 -12 61 -7 89 20 114 31
29 46 32 37 8z m2157 11 c0 -2 -4 -14 -10 -28 l-10 -26 -1040 0 -1040 0 -10
26 c-6 14 -10 26 -10 27 0 2 477 3 1060 3 583 0 1060 -1 1060 -2z m74 -19 c27
-25 32 -53 20 -114 -8 -39 -35 -41 -69 -6 -25 24 -32 64 -19 113 5 19 9 20 22
10 13 -11 15 -10 9 5 -9 24 5 21 37 -8z m-96 -87 l-3 -33 -1035 0 -1035 0 -3
33 -3 32 1041 0 1041 0 -3 -32z m-23 -80 c-10 -34 -82 -164 -127 -230 l-39
-58 -850 0 -849 0 -44 68 c-53 83 -112 189 -121 220 l-6 22 1021 0 1021 0 -6
-22z m-2166 -74 c9 -31 -8 -117 -27 -136 -29 -29 -43 102 -16 154 17 34 29 29
43 -18z m2347 14 c18 -35 16 -130 -4 -150 -15 -15 -45 53 -45 103 0 32 17 79
28 79 3 0 12 -14 21 -32z m-2188 -78 c30 -53 29 -97 -5 -132 l-27 -28 -23 40
c-14 22 -25 53 -25 69 -1 27 35 91 50 91 4 0 17 -18 30 -40z m-108 -196 c0
-36 -31 -79 -66 -88 -18 -6 -22 -1 -28 25 -8 42 -7 92 2 104 4 6 20 20 37 32
l30 21 12 -30 c7 -17 13 -45 13 -64z m2290 41 c9 -11 11 -32 6 -72 -4 -31 -8
-59 -10 -61 -8 -7 -66 29 -76 47 -13 26 -13 67 2 107 l12 33 26 -19 c15 -11
33 -26 40 -35z m-360 -24 c0 -6 -10 -17 -22 -25 -20 -14 -113 -16 -806 -16
-488 0 -790 4 -801 10 -10 5 -21 16 -25 25 -5 13 84 15 824 15 514 0 830 -4
830 -9z m-1361 -88 l26 -17 -30 -8 c-17 -4 -45 -5 -64 -2 -37 7 -54 -8 -45
-41 5 -19 4 -19 -10 -2 -11 14 -12 26 -5 50 5 18 9 33 9 34 0 1 8 4 18 6 26 8
73 -1 101 -20z m295 6 c35 -28 56 -80 63 -159 7 -83 -2 -75 -21 19 -21 101
-30 109 -119 107 -67 -1 -72 -3 -75 -24 -2 -13 10 -52 27 -87 16 -36 26 -65
22 -65 -12 0 -59 110 -67 156 -9 57 10 74 85 74 44 0 65 -5 85 -21z m316 11
c11 -6 24 -28 30 -50 10 -37 9 -61 -6 -142 -10 -51 -19 -29 -16 38 6 111 6
111 -88 111 -94 0 -94 0 -88 -111 3 -67 -6 -89 -16 -38 -15 81 -16 105 -6 142
6 21 18 44 28 49 22 14 138 14 162 1z m315 -7 c12 -12 16 -27 12 -54 -5 -42
-56 -159 -68 -159 -4 0 6 29 22 65 17 35 29 74 27 87 -3 21 -8 23 -76 24 -72
2 -74 1 -93 -29 -10 -17 -21 -52 -24 -77 -4 -25 -10 -54 -15 -65 -7 -16 -9
-13 -9 17 -2 72 20 141 54 175 30 30 39 33 93 33 43 0 65 -5 77 -17z m252 3
c2 -2 8 -17 12 -34 7 -22 5 -35 -5 -49 -14 -17 -15 -17 -10 2 10 35 -5 43 -76
42 -56 -2 -65 0 -55 12 20 23 70 41 101 36 16 -3 31 -7 33 -9z m-1574 -28 c31
-12 57 -54 57 -92 0 -23 -3 -25 -32 -19 -71 13 -96 30 -107 70 -17 59 -15 63
22 57 17 -3 45 -10 60 -16z m485 10 c7 -7 12 -25 12 -40 0 -16 12 -56 26 -89
14 -34 23 -63 20 -66 -9 -9 -24 7 -31 34 -3 16 -20 56 -36 91 -27 56 -31 82
-10 82 4 0 12 -5 19 -12z m297 3 c3 -5 7 -54 9 -108 2 -56 0 -87 -4 -73 -5 14
-8 40 -9 58 -1 18 -8 49 -16 69 -16 37 -14 63 4 63 5 0 12 -4 16 -9z m321 -4
c2 -7 -2 -30 -11 -50 -8 -20 -15 -53 -16 -74 0 -21 -4 -47 -9 -58 -5 -12 -7
20 -4 78 2 54 6 103 9 108 9 13 25 11 31 -4z m299 3 c4 -6 -7 -39 -24 -74 -17
-36 -33 -76 -37 -90 -6 -26 -21 -42 -30 -33 -3 3 6 32 20 66 14 33 26 73 26
89 0 39 30 67 45 42z m-780 -66 c13 3 30 9 39 12 19 7 40 -36 51 -103 10 -61
-15 -57 -45 7 -13 28 -28 50 -33 50 -9 0 -3 -53 10 -86 3 -8 -1 -14 -9 -14 -9
0 -29 29 -47 68 -37 81 -37 86 -10 72 11 -7 31 -9 44 -6z m610 0 c13 -3 33 -1
44 6 27 14 27 9 -10 -72 -18 -39 -38 -68 -47 -68 -8 0 -12 6 -9 14 13 33 19
86 10 86 -5 0 -20 -22 -33 -50 -13 -27 -29 -50 -37 -50 -16 0 -16 -3 -2 62 15
69 27 91 46 84 8 -3 25 -9 38 -12z m-806 -34 c6 -20 11 -50 11 -65 0 -24 -2
-26 -16 -14 -8 7 -22 25 -30 41 -15 30 -41 40 -30 12 6 -15 4 -15 -16 -2 -12
8 -25 26 -28 39 -7 23 -5 24 45 25 52 2 53 1 64 -36z m569 5 c2 -16 1 -48 -3
-73 -5 -33 -10 -42 -23 -40 -12 2 -20 19 -26 56 -5 28 -13 52 -17 52 -3 0 -9
-23 -13 -50 -4 -31 -13 -53 -22 -57 -21 -8 -22 -4 -30 59 -9 81 -7 84 67 83
63 -1 64 -1 67 -30z m544 8 c-6 -33 -31 -51 -44 -32 -8 12 -10 12 -15 0 -3 -7
-18 -28 -34 -45 -27 -30 -28 -30 -29 -8 0 13 5 43 11 66 l11 44 52 -2 c48 -1
52 -3 48 -23z m-1048 -85 c4 -17 2 -28 -4 -28 -5 0 -10 4 -10 9 0 5 -3 24 -6
42 -6 40 9 21 20 -23z m891 8 c-4 -20 -11 -36 -16 -36 -12 0 -11 10 2 49 14
41 22 34 14 -13z"/>
<path d="M3470 9839 c-259 -43 -497 -223 -620 -468 -78 -156 -102 -383 -60
-559 91 -379 434 -652 820 -652 324 0 628 196 765 493 101 219 101 485 0 704
-159 344 -533 543 -905 482z m368 -38 c286 -83 502 -310 577 -606 13 -48 18
-108 18 -190 0 -176 -37 -306 -130 -449 -86 -133 -200 -232 -344 -300 -123
-59 -185 -71 -354 -71 -129 0 -160 3 -225 23 -292 92 -499 311 -576 607 -23
92 -24 283 -1 377 76 311 322 553 632 622 99 22 304 15 403 -13z"/>
<path d="M3808 9741 c-20 -16 -31 -18 -68 -10 -69 13 -208 10 -284 -6 -65 -14
-70 -13 -94 5 -54 43 -131 5 -132 -65 0 -24 -8 -35 -44 -58 -55 -34 -166 -151
-201 -210 -20 -35 -33 -46 -60 -51 -66 -13 -96 -87 -55 -139 19 -24 20 -32 10
-89 -14 -88 -13 -149 6 -251 15 -81 15 -89 0 -106 -41 -46 -6 -123 62 -137 23
-5 42 -20 66 -53 46 -62 139 -149 204 -190 39 -25 52 -39 52 -57 0 -62 89 -96
142 -55 20 16 31 18 64 11 61 -15 222 -11 293 5 36 9 67 12 70 7 10 -15 49
-32 74 -32 37 0 77 43 77 82 0 28 7 37 44 61 55 35 166 151 201 211 21 35 33
46 52 46 35 0 83 51 83 88 0 16 -9 41 -20 55 -19 24 -20 31 -8 120 10 81 9
109 -6 202 -16 97 -16 109 -2 124 19 21 20 79 3 102 -16 21 -51 39 -75 39 -13
0 -34 19 -55 48 -46 63 -139 149 -204 191 -40 25 -53 39 -53 57 0 62 -89 96
-142 55z m-86 -166 c3 -3 -13 -50 -35 -105 l-41 -100 -38 -2 c-21 -1 -46 -2
-55 -2 -12 -1 -28 24 -55 88 -21 50 -38 95 -38 102 0 7 10 15 23 17 33 6 233
8 239 2z m301 -165 c37 -38 67 -72 67 -78 0 -5 -45 -29 -100 -53 l-101 -42
-37 34 c-20 19 -38 35 -40 35 -1 1 16 47 39 102 l41 101 32 -16 c17 -9 61 -46
99 -83z m-685 -30 l40 -95 -32 -37 c-17 -20 -35 -37 -41 -37 -21 -2 -195 73
-195 84 0 34 165 204 182 187 4 -4 25 -50 46 -102z m339 -201 c68 -25 116 -97
116 -174 0 -57 -18 -97 -60 -137 -116 -110 -306 -25 -306 137 0 75 47 148 113
174 34 13 102 13 137 0z m500 -46 c9 -33 11 -229 2 -237 -3 -3 -52 13 -108 36
l-102 42 3 54 3 54 90 38 c50 22 93 39 97 40 4 0 11 -12 15 -27z m-1027 -55
l101 -41 -3 -55 -3 -55 -94 -39 c-51 -21 -95 -37 -98 -34 -25 24 -31 266 -7
266 2 0 49 -19 104 -42z m960 -362 c0 -29 -150 -189 -176 -188 -5 0 -27 44
-50 99 l-41 98 36 41 35 41 98 -41 c54 -22 98 -44 98 -50z m-737 18 l37 -35
-41 -99 -41 -99 -32 16 c-33 17 -166 147 -166 162 0 8 175 89 195 90 6 0 27
-15 48 -35z m350 -177 c20 -50 37 -97 37 -104 0 -17 -105 -30 -212 -25 -31 1
-48 7 -48 15 0 6 17 53 37 104 l38 92 45 4 c25 2 50 4 55 5 6 1 27 -40 48 -91z"/>
<path d="M3553 9119 c-105 -52 -90 -207 24 -238 147 -41 226 172 89 239 -53
25 -61 25 -113 -1z m134 -31 c52 -53 45 -134 -16 -175 -19 -13 -46 -23 -61
-23 -40 0 -93 40 -106 80 -18 55 9 119 61 141 33 15 96 3 122 -23z"/>
<path d="M3283 7925 c-312 -42 -605 -133 -873 -271 -786 -408 -1315 -1178
-1410 -2053 -14 -133 -14 -429 0 -562 128 -1173 1024 -2120 2186 -2310 1212
-197 2391 466 2859 1609 84 206 150 470 175 701 14 133 15 428 0 562 -24 226
-89 486 -175 699 -159 396 -449 790 -776 1054 -214 173 -517 345 -764 434
-128 47 -357 105 -500 128 -137 23 -581 28 -722 9z m677 -180 c377 -57 733
-197 1036 -407 569 -393 939 -989 1041 -1677 21 -145 24 -511 5 -651 -105
-749 -523 -1393 -1158 -1783 -643 -394 -1447 -466 -2154 -194 -320 123 -606
311 -855 561 -383 385 -607 838 -697 1411 -17 109 -17 514 1 630 105 706 464
1297 1026 1690 359 251 766 398 1215 439 93 8 439 -4 540 -19z"/>
<path d="M3305 7664 c-1032 -140 -1843 -919 -2025 -1944 -31 -174 -39 -513
-16 -690 130 -993 841 -1784 1811 -2013 329 -78 741 -79 1065 -1 447 106 820
313 1140 634 383 383 622 882 681 1420 19 173 7 507 -25 671 -62 327 -177 613
-355 881 -385 579 -983 952 -1674 1043 -145 19 -461 18 -602 -1z m775 -71
c206 -44 243 -75 248 -207 5 -100 -17 -188 -85 -349 l-46 -109 -30 6 c-17 3
-33 8 -35 11 -3 2 14 51 36 108 68 170 89 298 57 343 -12 18 -27 22 -109 26
-80 4 -105 10 -162 38 -62 30 -71 31 -93 19 -55 -31 -85 -137 -97 -341 -7
-111 -8 -118 -28 -118 -47 0 -49 8 -44 166 6 171 25 266 68 341 33 57 62 82
113 93 37 8 53 6 207 -27z m-655 -5 c20 -17 45 -48 56 -69 42 -84 68 -280 54
-422 l-7 -77 -33 0 -33 0 -5 153 c-8 269 -57 348 -175 288 -53 -26 -97 -35
-178 -32 -61 1 -73 -1 -90 -20 -39 -44 -17 -193 59 -391 l26 -67 -32 -10 c-36
-13 -34 -15 -79 89 -70 167 -102 333 -79 417 13 49 54 101 90 115 47 18 265
56 328 57 56 1 66 -2 98 -31z m239 -8 c32 -29 33 -32 21 -58 -22 -43 -35 -144
-42 -324 l-6 -168 -27 0 -27 0 -6 168 c-8 183 -20 280 -42 322 -14 27 -13 29
21 59 44 39 64 39 108 1z m-869 -152 l45 -12 0 -47 c0 -58 37 -190 96 -336 24
-61 44 -115 44 -121 0 -9 -50 -27 -54 -20 -1 2 -17 39 -35 83 -55 131 -131
273 -174 327 l-40 51 24 44 c26 47 29 48 94 31z m1725 -32 l24 -44 -37 -43
c-39 -45 -133 -223 -182 -344 -16 -38 -30 -71 -31 -73 -4 -7 -54 11 -54 20 0
5 20 61 45 123 59 149 95 276 95 334 0 46 1 48 38 58 68 19 77 16 102 -31z
m-598 5 c56 -48 74 -53 172 -50 l91 4 3 -52 c3 -59 -15 -137 -59 -253 -29 -74
-44 -99 -55 -87 -2 2 9 45 26 95 16 49 29 107 29 128 -1 35 -2 33 -9 -15 -12
-77 -59 -201 -77 -201 -8 0 -13 6 -10 13 18 48 57 181 56 195 0 9 -11 -19 -24
-63 -36 -123 -43 -137 -63 -133 -15 3 -17 17 -14 136 1 73 1 132 -2 132 -3 0
-12 -24 -20 -54 -27 -92 -73 -186 -92 -186 -15 0 -16 10 -11 99 4 55 10 108
13 118 5 17 5 17 -6 1 -6 -10 -14 -63 -17 -118 -4 -66 -10 -99 -17 -97 -14 5
-13 178 2 230 6 20 7 35 2 32 -9 -6 -28 -114 -34 -195 -2 -30 -2 4 0 75 4 136
21 224 50 256 22 25 27 24 66 -10z m-550 2 c23 -26 36 -77 48 -178 14 -128 13
-202 -4 -208 -10 -4 -14 15 -19 91 -3 58 -11 111 -21 132 -9 19 -14 26 -10 15
27 -92 33 -245 10 -245 -10 0 -15 24 -19 94 -3 52 -11 103 -17 113 -11 17 -11
17 -5 -1 3 -11 8 -61 12 -111 5 -83 4 -92 -12 -99 -24 -9 -28 -2 -71 127 -19
59 -39 107 -43 107 -4 0 -4 -28 0 -62 10 -82 0 -198 -17 -198 -13 0 -37 55
-65 153 -10 34 -18 54 -18 45 -1 -14 37 -146 56 -195 3 -7 -2 -13 -10 -13 -17
0 -58 103 -77 193 -6 31 -14 57 -17 57 -10 0 10 -87 39 -168 17 -46 28 -85 25
-88 -9 -9 -68 158 -90 253 -26 113 -19 150 28 145 17 -1 57 -5 90 -8 56 -5 64
-3 115 29 65 41 72 43 92 20z m-750 -82 c56 -36 113 -109 166 -216 42 -83 92
-208 92 -230 0 -15 -51 -39 -60 -28 -3 4 -21 44 -40 88 -45 107 -104 208 -146
250 -55 56 -78 52 -161 -25 -43 -40 -80 -65 -120 -79 -84 -30 -88 -34 -91 -79
-5 -64 55 -161 189 -306 l63 -69 -23 -18 c-13 -11 -27 -19 -31 -19 -14 0 -197
197 -233 253 -81 122 -101 218 -61 287 18 30 184 149 279 199 58 31 120 28
177 -8z m2143 14 c52 -21 213 -133 266 -185 33 -32 48 -56 53 -83 19 -102 -79
-263 -261 -431 l-61 -57 -27 23 -26 23 86 90 c96 99 159 188 174 242 15 53 -2
79 -67 103 -70 26 -105 51 -163 111 -25 27 -55 49 -66 49 -59 0 -150 -113
-224 -280 -24 -52 -44 -97 -46 -99 -3 -4 -63 19 -63 25 0 13 53 141 85 204
112 223 227 313 340 265z m-2130 -217 c34 -40 155 -271 155 -296 0 -30 -23 -6
-56 60 -44 87 -83 148 -96 148 -5 0 3 -15 18 -32 40 -48 106 -190 94 -202 -12
-12 -11 -14 -53 69 -19 39 -45 81 -57 95 l-22 25 20 -30 c11 -16 36 -62 56
-102 34 -69 35 -73 17 -83 -17 -9 -31 3 -107 85 -48 52 -89 93 -91 91 -2 -1 8
-23 21 -47 26 -45 76 -171 76 -189 0 -6 -6 -10 -14 -10 -13 0 -50 39 -136 140
-15 18 -18 19 -11 5 5 -11 37 -51 70 -90 42 -48 57 -73 50 -80 -12 -12 -91 69
-145 149 -19 28 -34 46 -34 40 0 -17 57 -94 113 -151 28 -29 47 -53 41 -53
-28 0 -184 187 -220 264 -29 63 -20 86 34 86 61 1 115 32 162 94 24 32 50 56
60 56 10 0 35 -19 55 -42z m2053 10 c36 -67 73 -97 146 -116 39 -10 74 -26 80
-34 14 -24 -27 -99 -109 -197 -89 -106 -120 -135 -135 -126 -7 4 7 26 39 60
50 52 111 140 111 159 0 5 -17 -17 -39 -50 -55 -84 -123 -156 -138 -146 -8 5
3 25 37 65 63 74 94 117 83 117 -5 0 -16 -12 -25 -27 -9 -16 -38 -52 -65 -81
-36 -40 -53 -52 -65 -47 -10 4 -18 11 -18 16 0 5 25 59 56 120 30 61 52 114
49 117 -4 4 -11 -2 -17 -13 -22 -39 -152 -165 -170 -165 -25 0 -19 20 38 128
24 45 39 80 33 77 -5 -4 -30 -47 -54 -96 -40 -79 -65 -109 -65 -78 0 19 70
162 97 198 23 31 24 33 4 16 -13 -11 -45 -65 -72 -120 -27 -55 -49 -91 -49
-81 0 34 108 241 151 290 48 55 73 58 97 14z m-753 -147 c676 -137 1188 -647
1337 -1332 19 -91 22 -133 22 -329 0 -196 -3 -238 -23 -330 -130 -605 -552
-1085 -1121 -1274 -204 -68 -288 -80 -540 -80 -243 0 -324 11 -512 70 -511
162 -923 567 -1093 1076 -67 202 -79 287 -79 538 0 197 3 238 22 330 155 714
696 1228 1417 1345 135 21 427 14 570 -14z m-1827 -55 c18 -49 94 -146 212
-269 l103 -108 -21 -21 -21 -21 -108 102 c-122 117 -223 195 -270 213 -35 13
-38 27 -24 93 5 25 12 31 41 36 70 12 75 11 88 -25z m3124 16 c4 -4 10 -30 13
-57 7 -50 7 -50 -27 -63 -49 -18 -154 -100 -274 -214 l-105 -101 -21 21 -21
21 101 105 c114 120 196 225 214 274 13 34 13 34 63 27 27 -3 53 -9 57 -13z
m-3276 -157 c28 -8 79 -33 115 -56 75 -49 269 -235 269 -259 0 -9 -9 -25 -20
-35 -19 -17 -21 -15 -92 55 -130 129 -221 190 -280 190 -46 0 -56 -9 -79 -70
-26 -69 -50 -104 -110 -161 -35 -33 -49 -54 -49 -73 0 -55 128 -151 300 -226
41 -18 77 -34 79 -36 6 -5 -20 -64 -28 -64 -4 0 -36 12 -71 26 -236 96 -387
212 -406 311 -10 54 10 102 92 219 133 191 167 213 280 179z m3471 -29 c30
-20 145 -181 192 -271 64 -121 -12 -238 -224 -343 -73 -36 -215 -92 -234 -92
-10 0 -33 51 -27 58 3 2 50 24 105 47 110 47 230 122 255 160 26 40 21 79 -16
110 -49 41 -97 113 -114 171 -18 62 -32 76 -77 76 -59 0 -166 -68 -299 -191
-36 -33 -69 -61 -72 -61 -3 0 -13 12 -22 26 l-17 25 74 76 c206 209 369 280
476 209z m-3357 -181 c93 -63 215 -178 206 -193 -5 -9 -25 3 -64 39 -58 53
-138 109 -156 109 -6 0 13 -15 41 -32 61 -40 153 -122 153 -137 0 -19 -15 -12
-68 33 -69 59 -112 89 -112 79 0 -5 12 -16 28 -25 15 -9 51 -38 80 -65 40 -36
52 -53 47 -65 -4 -10 -11 -18 -17 -18 -5 0 -59 25 -120 55 -61 31 -114 53
-117 49 -3 -3 3 -10 14 -16 39 -22 165 -152 165 -170 0 -25 -20 -19 -128 38
-45 24 -80 39 -77 33 4 -5 47 -30 96 -54 81 -41 109 -65 76 -65 -18 0 -156 67
-197 96 l-35 25 32 -29 c33 -29 80 -55 162 -90 25 -10 40 -21 35 -24 -16 -10
-247 109 -297 153 -58 50 -62 80 -15 100 63 26 95 64 114 137 9 37 22 73 27
80 16 20 54 7 127 -43z m3230 -3 c1 -61 32 -115 94 -162 32 -24 56 -50 56 -60
0 -30 -77 -87 -195 -145 -124 -61 -155 -72 -155 -55 0 6 21 20 48 32 58 25
172 99 172 111 0 5 -14 -3 -32 -18 -50 -42 -189 -108 -201 -96 -14 14 -16 12
79 59 44 22 87 48 95 58 11 15 9 14 -16 -3 -16 -11 -62 -37 -102 -57 -69 -34
-73 -35 -83 -17 -9 17 3 31 85 107 52 48 94 89 92 91 -2 2 -24 -8 -48 -21 -45
-26 -171 -76 -189 -76 -34 0 18 61 120 143 19 15 26 24 15 18 -11 -5 -51 -36
-89 -70 -65 -58 -97 -71 -77 -32 11 21 98 96 156 134 22 15 35 27 29 27 -17 0
-94 -58 -151 -113 -29 -28 -53 -47 -53 -41 0 28 187 184 264 220 63 29 86 20
86 -34z m-3677 -357 c43 -37 223 -132 342 -180 39 -16 71 -30 73 -31 7 -4 -11
-54 -20 -54 -5 0 -61 20 -123 45 -150 59 -276 95 -335 95 -46 0 -47 1 -58 39
-19 60 -15 74 26 98 20 12 41 22 45 23 5 0 27 -16 50 -35z m4067 13 c43 -25
50 -48 27 -101 -11 -26 -18 -29 -65 -33 -61 -5 -206 -49 -346 -106 -95 -39
-100 -40 -113 -22 -7 10 -13 23 -13 28 0 6 37 26 83 45 125 52 293 140 335
177 20 18 41 33 45 34 4 0 26 -10 47 -22z m-3923 -226 c97 -33 233 -97 233
-110 -1 -23 -14 -52 -24 -52 -6 0 -49 16 -95 35 -160 68 -302 92 -347 60 -18
-12 -22 -27 -26 -108 -4 -79 -10 -106 -38 -165 -31 -68 -32 -72 -16 -96 34
-53 136 -82 334 -92 115 -7 122 -8 122 -28 0 -47 -8 -49 -166 -44 -174 6 -269
26 -345 71 -65 39 -93 84 -92 146 1 25 15 109 32 186 48 210 77 238 241 232
73 -3 117 -11 187 -35z m3978 17 c22 -6 56 -28 76 -48 34 -34 37 -44 62 -174
15 -76 27 -165 27 -197 0 -52 -4 -64 -32 -95 -38 -44 -88 -70 -170 -90 -77
-19 -298 -30 -353 -18 -36 8 -40 12 -43 41 l-3 32 118 0 c204 0 321 31 341 89
8 24 6 39 -15 82 -20 43 -27 74 -31 156 -5 117 -14 131 -81 140 -51 7 -197
-26 -311 -71 -88 -34 -90 -34 -104 10 -6 18 2 25 54 48 192 86 367 122 465 95z
m-3991 -139 c87 -25 205 -71 213 -82 11 -20 -8 -17 -95 12 -49 16 -107 29
-128 29 -35 -1 -33 -2 16 -10 82 -13 200 -58 200 -76 0 -8 -6 -13 -13 -10 -48
18 -181 57 -195 56 -9 0 19 -11 63 -24 123 -36 137 -43 133 -63 -3 -15 -17
-17 -138 -14 -135 2 -153 -4 -70 -25 71 -18 180 -73 180 -90 0 -14 -13 -15
-98 -10 -53 3 -106 9 -117 12 -19 6 -19 6 -2 -5 10 -7 63 -14 117 -17 77 -5
97 -9 93 -19 -7 -18 -116 -18 -200 -1 -34 8 -60 10 -57 6 5 -9 121 -28 199
-32 47 -3 41 -4 -27 -5 -99 -2 -228 13 -276 33 -54 23 -54 47 4 125 25 33 26
39 20 126 -3 50 -2 94 1 98 13 13 111 5 177 -14z m3896 5 c10 -12 10 -24 1
-54 -21 -71 -14 -122 24 -186 21 -34 33 -65 30 -75 -11 -35 -104 -57 -275 -67
-108 -5 -120 -4 -120 10 0 14 11 17 65 17 72 0 165 17 180 33 7 7 4 8 -10 3
-76 -27 -245 -36 -245 -12 0 10 25 14 101 19 61 3 106 10 113 18 8 9 7 10 -9
5 -11 -4 -61 -10 -111 -13 -81 -5 -92 -4 -98 12 -3 10 -4 20 -2 22 3 3 59 24
126 47 66 23 118 45 115 48 -3 3 -29 1 -58 -4 -69 -12 -207 0 -207 17 0 12 96
51 180 74 19 5 27 10 16 10 -10 1 -58 -12 -108 -29 -103 -35 -98 -34 -98 -17
0 14 120 62 198 78 28 6 52 13 52 15 0 9 -76 -8 -163 -38 -49 -16 -91 -28 -93
-25 -7 7 163 69 241 88 89 22 139 23 155 4z m-4170 -510 c36 -8 145 -18 243
-21 l177 -7 0 -27 0 -27 -167 -6 c-177 -7 -281 -21 -325 -43 -25 -13 -28 -12
-57 22 -38 42 -38 57 -5 101 20 27 31 33 48 28 11 -3 50 -12 86 -20z m4392 -2
c37 -35 36 -69 -3 -110 -30 -30 -34 -31 -58 -19 -43 22 -147 36 -324 43 l-167
6 0 29 0 28 98 0 c131 0 307 17 362 34 62 19 60 19 92 -11z m-4012 -131 c41
-6 45 -10 48 -38 l3 -31 -153 -6 c-275 -9 -347 -54 -286 -178 16 -33 22 -69
26 -146 6 -128 14 -138 111 -137 75 0 151 19 280 67 l90 34 11 -30 c6 -17 7
-34 3 -37 -17 -15 -182 -80 -253 -100 -166 -46 -276 -37 -341 28 -34 35 -37
45 -63 180 -40 206 -37 250 20 304 51 48 128 73 279 91 52 7 178 6 225 -1z
m3770 -16 c164 -27 256 -80 279 -161 9 -33 6 -61 -14 -165 -45 -222 -64 -261
-138 -289 -82 -31 -244 -3 -428 75 l-111 47 6 30 c3 17 8 33 11 35 2 3 51 -13
107 -36 177 -70 298 -90 344 -57 18 12 22 27 26 108 4 79 10 106 38 165 31 68
32 72 16 96 -34 53 -133 80 -333 92 -127 7 -128 8 -117 52 6 21 11 22 118 22
61 0 149 -6 196 -14z m-3720 -100 c0 -10 -24 -15 -92 -19 -79 -5 -166 -23
-156 -32 2 -2 32 3 68 11 87 18 190 19 190 1 0 -10 -25 -16 -95 -20 -53 -4
-104 -11 -113 -18 -15 -9 -15 -10 2 -4 11 3 61 8 111 12 83 5 92 4 99 -12 9
-24 2 -28 -126 -71 -60 -19 -108 -40 -108 -45 0 -5 10 -7 23 -4 12 2 47 6 77
7 211 9 214 -24 7 -83 -34 -10 -53 -18 -41 -18 11 -1 60 13 109 29 104 35 95
34 95 16 0 -15 -103 -56 -201 -81 -52 -14 -52 -14 -9 -8 25 3 81 18 124 34 87
32 117 37 73 13 -50 -27 -232 -82 -293 -89 -82 -9 -103 6 -86 62 22 73 16 123
-23 183 -19 30 -35 60 -35 66 -1 45 134 79 333 83 50 1 67 -2 67 -13z m3719
-20 c30 -8 63 -24 74 -35 19 -19 19 -21 3 -43 -73 -101 -68 -85 -64 -188 l3
-95 -50 -3 c-27 -2 -70 2 -95 8 -86 20 -250 84 -250 97 0 17 -5 18 98 -17 50
-16 105 -29 123 -29 26 1 28 3 9 6 -102 15 -220 58 -220 80 0 8 6 13 13 10 48
-18 181 -57 195 -56 9 0 -19 11 -63 24 -123 36 -137 43 -133 63 3 15 17 17
136 14 73 -2 132 -1 132 2 0 2 -24 12 -54 20 -92 27 -186 73 -186 92 0 15 10
16 99 11 55 -4 108 -10 118 -13 16 -5 16 -4 2 5 -9 6 -62 14 -117 17 -78 5
-99 10 -95 20 9 23 160 15 247 -12 11 -4 16 -2 12 4 -7 12 -61 22 -176 33 -71
6 -63 7 50 4 76 -3 159 -11 189 -19z m-3597 -441 c6 -14 9 -27 7 -28 -2 -2
-44 -21 -94 -41 -132 -56 -280 -135 -327 -175 l-40 -35 -44 24 c-48 25 -49 30
-33 94 l11 43 71 6 c70 5 220 52 362 111 75 31 73 31 87 1z m3290 -19 c151
-60 280 -96 338 -96 l48 0 11 -44 c17 -68 15 -75 -33 -98 l-44 -21 -44 37
c-40 35 -298 168 -380 197 -21 7 -38 17 -38 22 0 10 19 47 24 47 3 0 55 -20
118 -44z m-3243 -82 c12 -27 8 -44 -11 -44 -32 0 -277 -131 -316 -169 -61 -59
-58 -86 17 -166 37 -40 65 -81 76 -112 31 -86 34 -93 59 -103 54 -20 168 44
317 179 l81 74 19 -24 c10 -13 19 -27 19 -30 0 -12 -196 -195 -243 -228 -120
-82 -227 -106 -296 -66 -33 20 -188 239 -211 299 -29 78 4 168 87 233 73 59
328 181 379 183 6 0 16 -12 23 -26z m3143 2 c163 -61 323 -161 377 -236 63
-87 55 -134 -49 -288 -93 -138 -129 -177 -177 -193 -99 -32 -271 67 -446 257
l-56 60 22 27 22 27 90 -86 c143 -135 245 -195 299 -174 15 5 31 28 47 67 30
74 57 115 114 167 59 55 59 81 3 139 -48 49 -144 108 -258 158 -41 18 -77 34
-79 36 -4 3 19 63 25 63 2 0 32 -11 66 -24z m-3105 -82 c1 -5 -22 -20 -51 -32
-69 -30 -166 -90 -166 -104 0 -5 15 3 33 18 44 38 190 105 201 94 12 -12 13
-11 -69 -53 -38 -19 -81 -44 -95 -56 -14 -11 11 0 55 24 94 54 124 63 136 44
5 -8 9 -16 9 -19 0 -3 -43 -43 -96 -89 -52 -46 -93 -85 -91 -87 2 -3 24 7 48
20 45 26 171 76 189 76 34 0 -17 -61 -120 -143 -23 -19 -27 -24 -11 -16 14 6
45 30 70 53 93 83 88 81 101 56 11 -20 7 -28 -37 -72 -66 -68 -194 -163 -238
-178 -46 -15 -65 -1 -65 49 -1 60 -33 115 -94 161 -31 23 -56 49 -56 58 0 31
82 92 202 151 120 59 139 65 145 45z m3128 -49 c123 -60 205 -124 205 -158 0
-16 -13 -29 -47 -47 -57 -30 -88 -73 -104 -146 -16 -73 -28 -81 -83 -60 -41
16 -202 142 -255 199 -24 26 -24 27 -6 47 24 27 29 26 78 -18 23 -21 60 -51
82 -66 39 -28 39 -27 -5 10 -118 102 -126 112 -109 129 14 14 25 10 128 -40
63 -31 116 -53 120 -50 3 4 -3 11 -14 17 -38 21 -165 152 -165 170 0 27 15 23
120 -32 52 -28 86 -43 75 -34 -11 9 -55 33 -97 55 -72 36 -97 59 -65 59 20 0
158 -69 197 -98 19 -14 29 -18 21 -8 -18 21 -87 62 -166 98 -33 15 -51 28 -41
28 11 0 70 -25 131 -55z m-2840 -325 c17 -19 15 -22 -85 -127 -116 -123 -194
-223 -212 -271 -13 -34 -13 -34 -63 -27 -27 3 -53 9 -57 13 -4 4 -10 30 -13
57 l-7 50 35 13 c50 18 147 95 267 210 58 56 108 101 111 102 3 0 14 -9 24
-20z m2543 -81 c123 -118 220 -193 269 -211 l35 -13 -7 -50 c-3 -27 -10 -53
-14 -58 -4 -4 -30 -10 -57 -13 -49 -6 -49 -6 -62 27 -18 50 -100 155 -214 274
-98 103 -100 106 -83 125 10 11 20 20 23 20 2 0 52 -46 110 -101z m-2457 2
l23 -19 -64 -63 c-135 -136 -201 -231 -203 -295 -1 -42 13 -58 65 -73 60 -18
128 -64 172 -117 44 -52 73 -57 124 -17 44 33 120 152 168 262 21 47 39 88 41
90 3 4 63 -19 63 -25 0 -13 -54 -143 -88 -209 -99 -198 -204 -290 -308 -270
-38 7 -250 144 -301 195 -99 97 -52 237 151 447 60 62 114 113 121 113 7 0 23
-8 36 -19z m2360 -68 c98 -101 134 -145 177 -223 63 -111 62 -201 -1 -261 -18
-17 -89 -67 -156 -110 -112 -72 -128 -79 -174 -79 -98 0 -173 69 -259 236 -40
79 -98 222 -98 243 0 10 51 33 58 27 2 -3 24 -50 47 -105 47 -109 124 -233
161 -258 43 -28 69 -20 138 45 41 38 82 66 113 77 86 31 93 34 103 59 20 55
-36 156 -171 307 l-82 91 24 19 c13 10 26 19 29 19 3 0 44 -39 91 -87z m-2298
21 c4 -4 -17 -32 -45 -63 -52 -57 -108 -137 -108 -155 0 -6 15 13 33 41 39 61
121 153 136 153 20 0 11 -26 -20 -56 -37 -35 -103 -123 -97 -129 2 -2 23 22
46 54 23 32 56 71 72 86 27 26 32 28 46 13 14 -14 10 -26 -41 -128 -31 -62
-53 -115 -50 -118 4 -4 11 2 17 13 21 38 152 165 170 165 27 0 23 -15 -32
-120 -28 -52 -43 -86 -34 -75 9 11 33 55 55 98 36 71 59 96 59 64 0 -20 -69
-158 -98 -196 -14 -19 -20 -31 -13 -27 19 12 76 105 105 171 14 33 25 52 26
41 0 -27 -74 -182 -122 -252 -42 -63 -85 -98 -105 -86 -5 4 -18 23 -28 42 -31
62 -63 87 -134 106 -80 21 -94 32 -86 67 10 36 77 131 158 221 67 75 77 82 90
70z m2202 -76 c75 -81 136 -167 152 -214 15 -43 1 -64 -45 -64 -61 -1 -116
-32 -162 -94 -24 -32 -50 -56 -60 -56 -30 0 -88 78 -145 195 -56 116 -66 146
-50 151 6 2 21 -22 34 -53 28 -64 91 -163 104 -163 5 0 -4 15 -19 33 -38 44
-105 190 -94 201 12 12 11 14 58 -80 22 -44 48 -87 58 -95 15 -11 14 -9 -3 16
-11 17 -37 62 -57 102 -34 69 -35 73 -17 83 17 9 31 -3 107 -85 48 -52 89 -94
91 -92 2 2 -8 24 -21 48 -26 45 -76 171 -76 189 0 34 61 -18 143 -120 15 -19
23 -26 18 -15 -5 11 -37 52 -70 90 -53 62 -58 71 -44 83 9 6 20 12 24 12 4 0
37 -33 74 -72z m-1791 -171 c17 -13 16 -20 -28 -129 -60 -152 -96 -279 -96
-338 0 -46 -1 -47 -39 -58 -63 -19 -74 -16 -100 32 l-24 44 37 43 c39 46 145
247 187 357 25 64 33 71 63 49z m1365 -69 c49 -123 139 -292 179 -339 l36 -41
-24 -44 c-25 -48 -48 -55 -103 -31 -26 11 -29 18 -33 65 -5 59 -48 200 -106
347 -37 93 -38 100 -22 112 10 7 23 13 29 13 6 0 26 -37 44 -82z m-1246 22 c4
-4 -10 -53 -33 -110 -67 -168 -87 -291 -55 -336 12 -18 27 -22 109 -26 80 -4
105 -10 162 -38 62 -30 71 -31 93 -19 56 32 86 134 97 337 7 126 8 127 53 115
l24 -6 -6 -156 c-9 -247 -53 -372 -150 -420 -44 -22 -51 -22 -114 -11 -335 58
-381 93 -371 279 6 97 45 225 103 341 32 63 38 70 58 64 12 -3 26 -10 30 -14z
m1136 -51 c99 -221 125 -415 68 -500 -40 -58 -64 -68 -233 -99 -180 -32 -217
-30 -266 17 -72 68 -101 178 -102 391 -1 164 1 172 52 172 22 0 22 -2 22 -119
0 -193 31 -315 88 -340 20 -10 34 -7 81 15 45 21 75 27 159 32 95 4 104 7 122
30 13 16 20 40 20 67 0 53 -39 206 -78 307 l-30 77 27 10 c14 5 29 10 32 10 4
1 21 -31 38 -70z m-1069 37 c0 -3 -13 -45 -30 -94 -16 -50 -29 -107 -29 -128
1 -35 2 -33 9 15 12 77 59 201 77 201 8 0 13 -6 10 -13 -18 -48 -57 -181 -56
-195 0 -9 11 19 24 63 36 123 43 137 63 133 15 -3 17 -17 14 -136 -1 -73 -1
-132 2 -132 3 0 11 24 20 53 26 89 74 187 93 187 14 0 15 -11 10 -99 -4 -55
-10 -108 -13 -118 -5 -17 -5 -17 6 -1 6 10 14 62 17 117 5 82 8 98 21 94 12
-5 14 -22 9 -102 -4 -53 -11 -111 -16 -129 -5 -18 -6 -30 -1 -27 10 6 29 118
33 200 2 36 4 20 5 -40 1 -112 -18 -244 -43 -281 -19 -30 -55 -31 -81 -3 -38
42 -71 51 -168 48 l-91 -4 1 75 c2 98 74 320 104 320 6 0 10 -2 10 -4z m995
-150 c44 -132 56 -225 31 -245 -13 -11 -24 -12 -55 -2 -71 21 -120 14 -183
-25 -72 -44 -91 -40 -112 24 -18 53 -36 198 -36 285 0 44 3 57 15 57 12 0 15
-13 15 -58 0 -71 18 -173 32 -187 8 -7 9 -4 4 10 -27 76 -36 245 -12 245 10 0
15 -24 19 -94 3 -52 11 -103 17 -113 11 -17 11 -17 5 2 -4 11 -9 61 -12 111
-5 81 -4 92 12 98 24 9 28 2 71 -126 19 -60 39 -108 43 -108 4 0 4 26 -1 58
-10 75 0 202 17 202 12 0 52 -97 74 -180 6 -23 9 -28 10 -13 1 12 -12 60 -29
106 -34 98 -34 97 -17 97 15 0 60 -113 77 -192 6 -32 13 -58 16 -58 10 0 -11
90 -37 164 -16 44 -29 85 -29 90 1 22 29 -43 65 -148z m-505 -8 c0 -132 18
-314 36 -378 l16 -55 -38 -32 c-20 -18 -40 -33 -44 -33 -4 0 -24 15 -44 33
l-38 32 16 55 c18 64 36 246 36 378 l0 92 30 0 30 0 0 -92z"/>
<path d="M3440 6924 c-14 -2 -68 -12 -120 -20 -271 -46 -581 -196 -779 -379
-227 -209 -359 -407 -455 -684 -66 -190 -80 -278 -80 -521 0 -186 3 -229 22
-317 142 -652 613 -1123 1265 -1265 88 -19 132 -22 317 -22 185 0 229 3 317
22 651 142 1124 615 1265 1265 19 86 22 134 22 312 1 180 -2 225 -22 317 -90
429 -330 787 -690 1029 -126 84 -236 138 -390 189 -166 55 -268 71 -472 75
-96 2 -186 1 -200 -1z m477 -143 c448 -99 826 -392 1027 -796 106 -213 145
-372 153 -620 4 -143 2 -189 -15 -290 -104 -608 -556 -1082 -1162 -1217 -91
-20 -132 -23 -310 -23 -162 0 -223 4 -290 19 -713 156 -1200 751 -1200 1466 0
402 150 764 435 1051 237 238 522 379 880 433 17 2 111 3 210 1 134 -3 204 -9
272 -24z"/>
<path d="M3360 6714 c-586 -108 -1047 -575 -1145 -1159 -22 -130 -22 -340 0
-470 87 -522 461 -952 969 -1114 51 -16 135 -37 187 -47 113 -20 342 -22 449
-5 615 102 1082 561 1185 1166 22 130 22 339 0 470 -82 492 -427 911 -890
1086 -178 67 -253 80 -475 85 -147 2 -216 -1 -280 -12z m-616 -403 c-24 -70
-44 -280 -54 -584 -6 -160 -15 -298 -21 -308 -5 -11 -7 -28 -4 -39 5 -15 0
-20 -29 -26 -58 -10 -81 0 -83 38 -1 18 -4 87 -8 153 -4 66 -2 199 4 295 17
270 54 386 155 476 27 25 50 43 52 41 2 -1 -4 -22 -12 -46z m1441 -81 c85 -14
208 -78 337 -176 111 -84 148 -100 148 -66 0 45 63 59 81 18 41 -88 -84 -135
-171 -64 -107 85 -141 110 -147 105 -3 -4 1 -25 10 -47 8 -22 13 -40 10 -40
-17 0 -82 46 -95 68 l-16 25 -16 -31 c-13 -26 -60 -62 -80 -62 -3 0 4 20 15
45 18 41 19 47 4 75 -14 28 -74 75 -83 66 -2 -2 1 -20 6 -40 14 -50 2 -87 -38
-113 -48 -33 -65 -31 -45 7 30 58 17 105 -39 139 -49 31 -62 27 -70 -19 -7
-43 -16 -49 -36 -25 -20 24 -59 18 -92 -15 -24 -25 -29 -36 -23 -58 7 -28 32
-62 46 -62 4 0 19 11 33 25 25 25 68 33 94 17 9 -6 4 -14 -18 -30 -33 -25 -39
-56 -16 -88 14 -19 15 -19 38 4 28 25 48 29 48 7 0 -23 39 -53 79 -60 20 -3
107 1 194 10 202 20 238 14 305 -48 67 -64 63 -149 -9 -223 l-41 -42 25 -34
c45 -59 57 -100 57 -201 0 -82 -5 -108 -41 -218 -63 -189 -58 -286 18 -334 18
-11 32 -27 33 -36 0 -8 -20 -34 -45 -56 -39 -35 -45 -46 -45 -79 0 -23 10 -55
25 -79 14 -22 25 -43 25 -47 0 -14 -55 -9 -77 7 -18 13 -22 13 -33 0 -15 -18
-44 -19 -70 -3 -16 10 -24 10 -40 0 -27 -17 -59 -15 -67 3 -5 14 -8 14 -29 0
-32 -20 -43 -19 -37 5 8 29 48 58 106 75 72 21 77 28 77 102 0 99 -14 122
-122 194 -51 34 -118 85 -148 114 -77 72 -111 88 -204 93 -102 6 -162 -8 -326
-78 -74 -31 -142 -59 -151 -63 -12 -4 -8 14 19 75 23 54 35 99 38 141 l3 62
-8 -51 c-5 -28 -14 -69 -21 -90 -15 -47 -75 -169 -102 -206 -10 -15 -24 -41
-30 -58 -13 -39 8 -67 58 -76 19 -3 34 -9 34 -13 0 -20 -35 -51 -80 -70 l-50
-22 0 -57 c-1 -74 -17 -97 -62 -88 -43 9 -57 9 -91 0 -17 -4 -38 -1 -53 6 -19
11 -27 11 -36 2 -7 -7 -21 -12 -33 -12 -12 0 -26 5 -33 12 -9 9 -17 8 -37 -2
-14 -7 -28 -11 -31 -7 -9 8 4 42 27 71 18 23 27 26 90 26 62 0 72 3 101 29 29
26 33 35 32 78 -1 26 -15 95 -32 153 -17 58 -33 116 -36 130 -3 14 -3 1 -1
-28 5 -62 5 -62 -84 -9 -63 38 -131 110 -161 172 -65 135 -8 320 130 422 92
68 120 95 120 114 0 30 -28 35 -55 9 l-24 -23 -22 38 c-20 33 -23 35 -32 18
-15 -28 -16 -28 -31 -8 -12 17 -18 18 -50 8 -39 -12 -41 -11 -26 18 10 18 8
19 -44 13 l-56 -7 16 47 c19 56 25 60 67 47 18 -6 60 -15 92 -19 47 -6 59 -11
57 -23 -2 -12 9 -18 44 -23 96 -13 102 -6 57 61 -16 22 -43 62 -60 88 -31 46
-34 46 -45 7 -3 -10 -10 -8 -29 7 -28 22 -41 19 -32 -6 11 -29 -32 4 -90 67
-53 59 -67 90 -67 149 0 34 17 51 50 51 34 0 50 -17 50 -52 0 -30 -5 -30 78
-12 15 3 51 10 81 15 61 10 101 40 101 76 0 21 5 23 46 23 31 0 56 -7 75 -21
35 -25 59 -19 59 14 0 13 3 26 6 30 10 10 61 -13 85 -39 29 -31 34 -30 49 6 7
17 20 30 30 30 9 0 36 -13 58 -30 47 -34 77 -38 104 -13 10 9 21 14 24 11 9
-9 -21 -71 -45 -92 l-21 -19 20 -32 c17 -27 20 -50 20 -139 0 -58 -4 -106 -9
-106 -23 0 -61 45 -76 89 -9 27 -23 55 -32 63 -14 12 -15 8 -9 -35 8 -50 2
-56 -30 -32 -33 25 -34 16 -2 -15 17 -17 32 -29 34 -27 2 2 7 21 12 43 l8 39
7 -37 c4 -20 21 -49 37 -65 19 -18 35 -49 44 -81 7 -29 11 -52 9 -52 -12 0
-94 63 -112 86 l-20 26 -12 -26 -12 -26 -29 27 -28 27 0 -25 c0 -38 -10 -42
-39 -17 l-25 23 25 -32 c28 -38 36 -40 44 -13 7 23 25 26 44 8 10 -11 14 -9
22 5 9 16 15 14 60 -24 31 -26 49 -49 49 -63 0 -12 7 -32 16 -44 14 -21 14
-22 -6 -22 -28 0 -81 23 -105 47 -18 18 -21 18 -32 4 -10 -14 -16 -12 -54 19
-24 19 -44 29 -46 23 -2 -6 -19 5 -38 25 l-34 37 -11 -29 -11 -29 -31 29 c-29
26 -31 27 -17 5 27 -43 45 -48 67 -21 l20 25 22 -38 c16 -27 26 -35 33 -28 16
16 47 -17 47 -51 0 -15 -2 -28 -5 -28 -3 0 -24 14 -47 31 -30 21 -44 26 -46
17 -10 -38 -13 -39 -39 -8 l-27 32 -19 -26 c-20 -28 -37 -26 -37 5 0 27 -15
23 -30 -8 l-13 -28 -13 30 c-10 22 -13 25 -13 10 0 -11 4 -29 8 -39 7 -17 9
-17 29 9 l22 28 0 -27 c0 -33 14 -33 45 0 27 30 37 27 55 -16 16 -38 27 -38
35 0 l7 30 30 -17 c16 -10 34 -26 40 -37 8 -15 12 -16 19 -5 5 8 9 26 9 42 0
29 9 34 28 15 10 -10 14 -10 21 0 6 10 18 7 56 -12 26 -15 55 -26 63 -26 9 0
23 -6 31 -13 17 -13 175 -10 576 11 198 10 255 26 292 81 30 45 29 74 -4 111
-37 42 -91 53 -185 39 -40 -6 -132 -13 -203 -16 -123 -5 -135 -4 -208 22 -97
33 -119 31 -133 -14 l-11 -34 -16 24 c-20 27 -22 68 -5 104 10 21 8 29 -9 48
-33 36 -43 63 -43 115 0 64 29 107 99 149 84 50 179 64 306 43z m-1210 -419
c39 -16 102 -36 140 -44 56 -11 72 -18 82 -37 7 -14 10 -26 8 -28 -2 -2 -24 0
-50 3 -33 5 -45 11 -41 21 6 15 -6 19 -89 29 -76 10 -155 49 -155 77 0 15 35
8 105 -21z m-436 -390 c9 -6 12 -18 7 -36 -5 -19 -3 -31 6 -36 18 -12 96 -11
119 1 16 9 17 14 7 30 -10 16 -10 23 4 37 14 14 22 15 43 5 30 -14 39 -33 31
-67 -10 -39 -59 -59 -146 -59 -87 0 -136 20 -146 59 -8 33 1 54 28 65 29 11
30 11 47 1z m403 -366 c11 -22 42 -65 69 -96 l48 -56 -27 -25 c-31 -30 -64
-48 -86 -48 -8 0 -44 26 -81 57 -60 51 -69 55 -87 44 -11 -7 -23 -10 -26 -6
-3 3 -8 33 -10 68 -4 64 -25 102 -49 93 -16 -7 -17 6 -1 22 17 17 28 15 21 -5
-4 -10 -2 -14 4 -10 6 4 10 25 10 47 l0 41 -18 -31 c-21 -34 -47 -43 -29 -10
6 11 14 20 18 20 8 0 32 48 32 64 0 6 -9 -4 -20 -21 -20 -33 -44 -46 -34 -18
4 8 10 15 15 15 10 0 43 69 36 76 -3 3 -15 1 -27 -6 -11 -6 -30 -8 -43 -4 -20
7 -18 9 18 20 l40 12 103 -102 c57 -55 113 -119 124 -141z m-300 204 c26 -14
22 -29 -7 -29 -37 0 -98 27 -90 41 8 12 66 4 97 -12z m68 -7 c0 -11 -22 -32
-32 -32 -5 0 -4 9 2 20 11 20 30 28 30 12z m-112 -27 c28 -9 54 -20 57 -25 12
-19 -5 -28 -38 -20 -17 4 -44 11 -59 14 -19 4 -28 13 -28 26 0 24 2 24 68 5z
m14 -55 c71 -20 63 -53 -9 -38 -53 11 -69 21 -59 37 9 14 21 14 68 1z m31 -62
c41 -21 6 -42 -47 -27 -25 7 -36 16 -36 29 0 17 5 19 33 13 17 -3 40 -10 50
-15z m-20 -52 c8 -8 26 -16 41 -18 36 -4 33 -23 -4 -23 -33 0 -39 -18 -16 -48
12 -15 12 -22 0 -47 -16 -32 -10 -72 14 -92 12 -10 16 -10 19 0 3 6 14 12 25
12 29 0 19 -31 -17 -50 -17 -8 -32 -16 -34 -17 -2 -2 4 -12 14 -23 18 -19 17
-20 -3 -20 -14 0 -27 -11 -37 -31 -18 -34 -38 -34 -43 -1 -2 14 -13 24 -28 28
-23 6 -24 8 -9 24 16 17 14 19 -19 35 -21 10 -36 25 -36 34 0 27 12 33 31 15
16 -14 18 -13 33 8 19 26 20 48 5 81 -9 20 -8 30 6 51 18 27 16 31 -30 38 -32
5 -25 34 8 30 17 -2 29 3 33 13 8 19 28 19 47 1z m1459 -38 c24 -7 67 -36 104
-70 35 -31 75 -65 88 -73 l25 -17 -20 -31 c-10 -18 -19 -38 -19 -44 0 -22 39
-53 65 -53 34 0 32 -11 -17 -80 l-41 -59 12 -55 c19 -86 -5 -114 -69 -81 -25
13 -29 13 -34 0 -7 -20 -65 -20 -72 0 -5 13 -8 13 -27 0 -27 -19 -51 -19 -67
0 -11 13 -15 13 -41 0 -36 -19 -39 -19 -39 3 0 32 37 55 101 63 83 10 99 26
99 103 0 99 -10 134 -57 200 -53 74 -93 153 -93 184 0 18 5 22 31 22 18 0 50
-5 71 -12z"/>
<path d="M3665 6083 c-16 -9 -59 -22 -95 -29 -50 -9 -57 -12 -29 -13 45 -1
133 24 149 44 15 19 13 18 -25 -2z"/>
<path d="M3208 6005 c-14 -30 5 -57 36 -53 21 3 37 48 18 48 -5 0 -9 -8 -8
-17 1 -12 -6 -18 -19 -18 -25 0 -27 33 -3 49 14 8 30 4 73 -17 30 -15 74 -30
97 -33 36 -6 40 -5 35 9 -5 14 0 16 38 10 77 -10 122 13 73 38 -19 9 -21 9
-10 -2 6 -7 12 -17 12 -22 0 -15 -108 -1 -136 18 -28 18 -30 14 -8 -20 l16
-25 -33 6 c-19 4 -55 18 -81 30 -61 31 -85 30 -100 -1z"/>
<path d="M3700 5915 c13 -14 25 -25 27 -25 2 0 -4 11 -13 25 -9 14 -21 25 -27
25 -6 0 0 -11 13 -25z"/>
<path d="M3530 5865 c0 -31 -7 -31 -37 -3 l-23 21 0 -26 c0 -29 -17 -37 -26
-12 -11 27 -24 16 -17 -15 6 -35 -6 -39 -32 -10 -17 19 -18 19 -38 -6 l-20
-25 -29 28 c-16 15 -27 21 -23 12 3 -9 19 -25 34 -37 l28 -21 13 24 13 24 28
-19 c34 -25 39 -25 39 1 0 13 4 18 12 13 6 -4 17 1 24 11 11 15 16 16 29 5 14
-12 18 -11 26 1 9 15 12 59 4 59 -3 0 -5 -11 -5 -25z"/>
<path d="M3162 5494 l-23 -46 39 7 39 6 9 -42 9 -42 37 35 c40 37 48 38 48 4
1 -18 6 -15 35 17 l33 39 18 -28 18 -27 22 48 22 48 17 -38 c8 -22 18 -49 21
-62 8 -29 10 -29 51 3 34 26 35 26 89 11 l54 -16 0 24 c0 44 10 55 50 55 46 0
59 14 28 31 -21 11 -22 11 -9 -4 12 -15 9 -17 -33 -17 -46 0 -46 0 -46 -35 0
-40 -2 -40 -61 -20 -42 15 -43 15 -71 -12 -15 -14 -30 -25 -32 -22 -10 9 -46
101 -46 116 0 13 -3 13 -15 3 -8 -7 -15 -18 -15 -24 -1 -6 -7 -24 -13 -40
l-13 -29 -21 33 -21 33 -23 -44 c-14 -29 -24 -39 -27 -29 -3 8 -9 26 -14 40
l-10 25 -11 -34 c-22 -63 -66 -66 -67 -3 0 24 -7 26 -44 13 l-25 -10 15 36
c22 52 11 50 -14 -3z"/>
<path d="M3196 5058 c-9 -30 -15 -92 -7 -78 10 18 22 90 15 90 -3 0 -6 -6 -8
-12z"/>
<path d="M2224 4229 c-16 -17 -60 -53 -98 -80 -38 -27 -64 -49 -59 -49 16 0
122 81 162 124 19 20 33 36 30 36 -3 0 -18 -14 -35 -31z"/>
<path d="M4995 4231 c41 -43 149 -121 168 -121 6 0 -11 14 -39 31 -27 17 -76
54 -109 82 -59 50 -59 50 -20 8z"/>
<path d="M4714 3920 c27 -30 64 -77 82 -105 19 -27 34 -45 34 -38 0 16 -82
123 -126 163 -32 30 -31 27 10 -20z"/>
<path d="M2600 8164 c-24 -11 -51 -14 -84 -10 -31 3 -61 0 -83 -9 -20 -8 -51
-15 -70 -15 -24 0 -43 -8 -62 -27 -17 -17 -42 -29 -62 -31 -19 -1 -38 -7 -43
-12 -6 -6 -30 -10 -54 -10 -55 0 -98 -39 -108 -97 -4 -27 -19 -53 -50 -86 -24
-26 -48 -47 -54 -47 -23 0 -8 -19 21 -25 l31 -7 -43 -25 c-24 -13 -60 -39 -79
-57 -19 -18 -44 -37 -55 -42 -14 -6 7 -10 69 -12 77 -2 96 0 134 20 27 14 52
36 63 57 10 19 24 38 31 43 7 4 9 8 3 8 -5 0 9 18 30 40 42 43 53 46 118 28
57 -15 84 -7 139 41 41 36 48 39 77 31 17 -5 31 -5 31 0 0 11 -26 20 -58 20
-15 0 -39 8 -55 18 -27 18 -27 19 -8 36 10 9 26 44 35 76 10 33 21 60 26 60 4
0 17 3 27 7 15 5 15 2 -4 -18 -13 -14 -26 -40 -29 -59 -4 -19 -13 -46 -21 -58
-8 -13 -13 -25 -11 -27 9 -8 125 18 140 32 10 9 27 44 37 77 16 52 23 62 49
71 17 6 34 14 38 18 13 13 -30 7 -66 -9z m-37 -30 c14 -5 14 -11 2 -51 -18
-60 -34 -74 -89 -83 l-45 -7 6 31 c14 79 73 131 126 110z m-156 -28 c6 -6 -20
-77 -35 -96 -15 -18 -99 -46 -109 -36 -2 2 4 25 12 53 20 68 55 97 105 87 14
-3 26 -7 27 -8z m-144 -68 c-3 -18 -12 -46 -20 -62 -14 -27 -14 -28 3 -22 28
11 -24 -42 -59 -61 -41 -21 -64 -10 -37 17 11 11 27 46 36 79 15 51 21 60 48
69 17 5 32 10 33 11 1 1 0 -14 -4 -31z m-94 -7 c14 -9 10 -31 -16 -88 -14 -31
-19 -33 -65 -33 -54 0 -54 0 -26 73 16 43 74 69 107 48z m220 -90 l23 -18 -38
-32 c-52 -42 -77 -47 -126 -25 l-40 18 41 38 c32 30 48 38 78 38 21 0 49 -9
62 -19z m-257 -66 c21 -14 21 -15 -16 -50 -30 -28 -46 -35 -76 -35 -22 0 -50
5 -63 11 l-23 11 30 32 c17 18 40 38 51 45 24 13 68 7 97 -14z m-62 -106 c0
-25 -36 -70 -69 -85 -19 -9 -64 -19 -100 -22 l-66 -5 25 28 c39 42 80 68 129
81 59 16 81 17 81 3z"/>
<path d="M4560 8172 c0 -4 14 -12 31 -17 28 -9 34 -18 50 -71 10 -33 27 -68
37 -77 15 -14 131 -40 140 -32 2 2 -3 14 -11 27 -8 12 -17 39 -21 58 -3 19
-16 45 -29 59 -19 20 -19 23 -4 18 10 -4 22 -7 27 -7 5 0 16 -24 24 -54 9 -29
24 -64 35 -77 19 -24 19 -24 -7 -41 -15 -10 -39 -18 -54 -18 -32 0 -58 -9 -58
-20 0 -5 14 -5 31 0 29 8 36 5 77 -31 55 -48 82 -56 139 -41 67 18 86 15 114
-21 14 -17 26 -36 27 -41 0 -5 5 -12 11 -16 7 -3 20 -22 30 -41 11 -21 36 -43
63 -57 38 -20 57 -22 134 -20 62 2 83 6 69 12 -11 5 -36 24 -55 42 -19 18 -55
44 -79 57 l-43 25 31 7 c34 7 40 21 13 29 -30 10 -88 89 -96 130 -11 56 -54
96 -104 96 -21 0 -53 7 -70 16 -18 8 -40 14 -49 12 -9 -2 -29 9 -44 25 -19 19
-38 27 -62 27 -19 0 -51 7 -70 15 -24 10 -51 13 -81 9 -31 -5 -58 -1 -86 10
-45 18 -60 20 -60 8z m182 -59 c13 -12 48 -97 48 -118 0 -9 -95 16 -106 27
-23 23 -46 106 -31 112 20 9 69 -3 89 -21z m171 -20 c13 -12 47 -98 47 -119 0
-6 -76 9 -93 18 -17 9 -35 42 -51 95 -5 16 -2 23 11 26 26 7 65 -2 86 -20z
m120 -102 c9 -31 25 -66 37 -79 17 -18 18 -23 6 -28 -18 -7 -64 17 -96 51 -19
20 -20 25 -6 19 17 -6 17 -5 3 22 -8 16 -17 43 -20 60 l-6 32 33 -10 c30 -9
35 -17 49 -67z m86 34 c26 -13 40 -36 56 -92 6 -21 3 -23 -38 -23 -50 0 -68
15 -87 74 -10 32 -10 40 1 47 20 12 36 11 68 -6z m-148 -103 l41 -38 -40 -18
c-49 -22 -74 -17 -126 25 l-38 32 23 18 c13 10 41 19 62 19 30 0 46 -8 78 -38z
m212 -33 c12 -7 36 -27 53 -45 l30 -32 -23 -11 c-56 -26 -136 -2 -163 49 -8
15 -4 21 23 34 38 19 51 20 80 5z m92 -140 c23 -10 56 -35 75 -55 l35 -36 -65
4 c-94 8 -169 52 -170 101 0 16 5 18 43 12 23 -4 60 -15 82 -26z"/>
<path d="M1891 7855 c-18 -8 -48 -15 -66 -15 -42 0 -82 -32 -96 -78 -9 -30
-20 -41 -58 -59 -26 -13 -61 -26 -79 -29 -46 -9 -74 -46 -83 -106 -5 -29 -11
-63 -15 -76 -6 -23 -6 -23 27 -8 19 8 49 20 68 27 38 14 61 57 61 114 0 22 8
43 20 55 25 25 40 26 33 2 -4 -18 -1 -18 55 -8 76 14 99 35 119 109 15 51 20
59 45 64 16 3 31 10 34 14 8 14 -27 10 -65 -6z m-26 -35 c11 -17 -18 -91 -43
-111 -14 -10 -40 -19 -58 -19 -32 0 -33 1 -28 33 10 50 27 80 54 94 30 15 67
17 75 3z m-229 -200 c-11 -67 -25 -88 -74 -105 -25 -8 -46 -15 -47 -15 -1 0 2
26 6 58 9 66 41 102 91 102 30 0 30 -1 24 -40z"/>
<path d="M5264 7861 c3 -4 18 -11 34 -14 25 -5 30 -13 45 -64 20 -74 43 -95
119 -109 56 -10 59 -10 55 8 -6 22 2 23 31 2 15 -10 22 -25 22 -47 0 -49 19
-106 38 -116 10 -5 42 -19 71 -30 l53 -20 -6 22 c-4 12 -10 46 -15 75 -9 60
-37 97 -83 106 -18 3 -53 16 -79 29 -38 18 -49 29 -58 59 -14 46 -54 78 -96
78 -18 0 -49 7 -68 15 -40 17 -71 20 -63 6z m160 -41 c25 -9 41 -36 63 -106
l10 -30 -44 6 c-23 4 -51 14 -61 24 -21 18 -46 91 -37 106 8 13 37 13 69 0z
m241 -182 c20 -18 28 -37 34 -80 4 -32 7 -58 6 -58 -1 0 -22 7 -47 16 -49 16
-61 34 -74 107 -6 36 -5 37 24 37 18 0 42 -10 57 -22z"/>
<path d="M1917 7633 c-4 -3 -31 -5 -60 -4 -65 2 -99 -21 -128 -83 -27 -61 -40
-72 -88 -80 -57 -9 -97 -30 -146 -76 -22 -21 -51 -41 -64 -45 -21 -6 -19 -3
12 25 32 27 37 38 37 74 0 22 -5 58 -11 80 -9 34 -8 41 12 62 12 13 19 27 15
31 -4 5 -19 -5 -32 -22 -13 -16 -28 -34 -33 -38 -85 -77 -84 -75 -77 -120 18
-121 20 -131 33 -115 8 9 24 13 42 10 l29 -4 -37 -34 c-21 -18 -46 -53 -56
-76 -10 -24 -26 -51 -34 -62 -15 -18 -15 -18 9 -11 94 28 146 70 161 130 11
42 11 43 70 54 65 13 106 42 138 96 19 32 19 35 3 45 -13 7 -1 9 45 8 74 -3
96 13 133 92 21 45 27 50 57 50 18 0 33 5 33 10 0 11 -53 14 -63 3z m-30 -27
c7 -6 -26 -67 -50 -93 -16 -18 -31 -23 -68 -23 l-47 0 16 41 c23 58 67 92 110
85 19 -3 37 -7 39 -10z m-420 -144 c5 -46 4 -49 -33 -82 l-38 -33 -13 29 c-20
48 -16 108 10 131 48 44 64 35 74 -45z m226 -30 c-19 -53 -91 -91 -172 -92
l-55 0 35 36 c41 43 77 63 132 73 51 9 68 4 60 -17z m-220 -185 c-17 -28 -83
-76 -106 -77 -10 0 20 70 41 94 9 10 31 27 47 37 30 19 30 19 33 -1 2 -11 -5
-35 -15 -53z"/>
<path d="M5240 7631 c0 -6 15 -11 33 -11 30 0 36 -5 57 -50 37 -79 59 -95 133
-92 46 1 58 -1 45 -8 -16 -10 -16 -13 4 -46 29 -50 77 -82 138 -94 29 -5 54
-10 55 -10 2 0 8 -20 14 -44 15 -61 66 -103 161 -131 24 -7 24 -7 9 11 -8 11
-24 38 -34 62 -10 23 -35 58 -56 76 l-37 34 29 4 c18 3 34 -1 42 -10 13 -16
15 -6 33 115 7 45 8 43 -77 120 -5 4 -20 22 -33 38 -13 17 -28 27 -32 22 -4
-4 3 -18 16 -32 21 -22 22 -28 11 -69 -20 -81 -15 -110 26 -146 31 -28 33 -31
12 -25 -13 4 -42 24 -64 45 -49 46 -89 67 -146 76 -48 8 -61 19 -88 80 -27 59
-64 85 -120 84 -25 -1 -65 2 -88 6 -30 4 -43 3 -43 -5z m197 -35 c16 -14 37
-43 45 -65 l16 -41 -47 0 c-52 0 -74 16 -105 77 -20 40 -20 41 2 46 39 10 62
6 89 -17z m387 -85 c30 -26 36 -56 24 -115 l-12 -55 -37 30 c-47 37 -54 57
-39 119 12 52 23 55 64 21z m-167 -85 c16 -8 44 -30 62 -50 l35 -36 -55 0
c-81 1 -153 39 -172 92 -3 9 -1 18 6 21 18 6 93 -10 124 -27z m150 -158 c22
-23 58 -98 48 -98 -14 0 -82 40 -98 58 -10 11 -21 36 -24 57 l-6 37 29 -15
c16 -8 39 -26 51 -39z"/>
<path d="M1331 7516 c-19 -19 -47 -40 -63 -47 -33 -14 -58 -55 -58 -98 0 -25
-5 -31 -34 -41 -58 -19 -71 -42 -74 -136 l-2 -83 59 33 59 34 5 -47 c3 -25 0
-55 -6 -66 -10 -18 -9 -19 13 -4 33 22 81 92 89 130 4 19 3 49 -2 68 -7 26 -5
41 9 66 13 25 16 47 11 101 -5 64 -4 71 21 97 14 15 21 27 16 27 -6 0 -25 -15
-43 -34z m-5 -91 c9 -63 -1 -90 -42 -114 -41 -25 -40 -25 -49 10 -5 21 -1 29
19 43 32 20 36 42 5 26 -26 -15 -33 -8 -25 24 6 24 46 55 73 56 6 0 15 -20 19
-45z m-106 -158 c0 -59 -9 -75 -61 -104 l-37 -21 -6 45 c-10 75 25 132 82 133
20 0 22 -5 22 -53z m28 -12 c-6 -14 -13 -23 -15 -21 -5 5 15 46 22 46 3 0 -1
-11 -7 -25z m58 0 c9 -38 -3 -84 -34 -129 l-27 -39 -6 32 c-8 38 5 103 27 137
21 31 32 30 40 -1z"/>
<path d="M5862 7523 c24 -26 26 -33 21 -100 -5 -58 -2 -78 11 -98 13 -19 15
-35 10 -58 -16 -68 -5 -103 53 -174 35 -44 62 -59 44 -25 -6 10 -7 39 -3 64
l7 46 57 -33 56 -33 1 78 c1 90 -15 121 -74 140 -30 10 -35 16 -35 41 0 43
-25 84 -58 98 -16 7 -44 28 -63 47 -18 19 -37 34 -43 34 -5 0 2 -12 16 -27z
m81 -65 c28 -15 46 -38 47 -60 0 -21 -11 -23 -28 -6 -6 6 -15 8 -19 4 -4 -4 5
-17 21 -29 22 -18 26 -27 21 -50 -4 -15 -9 -27 -11 -27 -1 0 -19 9 -38 21 -41
24 -51 51 -42 114 8 48 14 52 49 33z m134 -162 c25 -22 28 -31 27 -81 -1 -31
-4 -58 -7 -61 -11 -11 -85 36 -91 58 -8 31 -8 93 1 101 13 14 43 6 70 -17z
m-123 -41 c21 -31 34 -100 26 -139 l-5 -29 -27 39 c-31 45 -43 91 -34 129 8
32 19 32 40 0z m36 -19 c0 -12 -5 -7 -19 24 -11 24 -11 24 3 6 9 -11 16 -24
16 -30z"/>
<path d="M1043 7198 c-37 -40 -53 -81 -53 -139 0 -44 -4 -60 -21 -75 -38 -34
-57 -85 -61 -166 -2 -43 0 -78 4 -78 11 0 66 71 84 109 11 23 14 47 10 76 -4
32 -1 46 10 56 28 23 74 113 73 144 0 17 -6 45 -12 63 l-12 33 -22 -23z m30
-44 c6 -36 -8 -83 -37 -122 -19 -26 -25 -30 -30 -17 -10 28 -7 74 9 112 28 68
48 77 58 27z m-79 -264 c-8 -37 -54 -111 -65 -105 -24 15 -2 131 33 173 11 12
14 10 25 -14 7 -16 10 -40 7 -54z"/>
<path d="M6140 7181 c-12 -38 -11 -78 5 -113 13 -33 -13 -19 -65 33 -50 50
-86 63 -40 14 22 -24 22 -26 10 -87 -11 -52 -15 -59 -24 -43 -39 66 -107 114
-184 130 -30 6 -32 5 -24 -12 5 -10 18 -40 29 -68 15 -41 28 -55 70 -81 28
-17 77 -36 108 -43 35 -8 69 -24 90 -42 l33 -29 6 37 c16 96 18 141 7 147 -6
4 -11 12 -11 17 0 6 15 -10 34 -34 29 -39 34 -51 29 -84 -4 -28 1 -51 15 -80
23 -43 69 -103 81 -103 7 0 4 98 -5 156 -2 17 -20 49 -39 71 -30 36 -35 48
-35 93 0 57 -19 106 -54 139 l-23 21 -13 -39z m61 -45 c19 -41 24 -91 13 -120
-15 -38 -79 86 -68 132 13 54 26 52 55 -12z m-283 -63 c37 -18 74 -59 102
-113 l20 -38 -38 10 c-87 24 -137 68 -153 135 -7 31 -5 33 14 27 12 -3 37 -13
55 -21z m194 -22 c41 -21 54 -61 38 -126 l-13 -54 -39 30 c-32 26 -38 37 -38
69 0 47 10 101 19 97 3 -2 18 -9 33 -16z m169 -135 c20 -43 25 -121 10 -131
-14 -8 -62 78 -63 112 -1 39 11 75 24 67 5 -4 19 -25 29 -48z"/>
<path d="M1144 7108 c-22 -24 -53 -54 -68 -67 -25 -22 -27 -29 -22 -75 2 -28
8 -68 12 -89 l6 -38 28 26 c17 17 55 35 95 46 97 27 149 60 174 112 12 24 21
50 21 58 0 8 5 20 12 27 16 16 2 15 -58 -3 -59 -17 -118 -64 -142 -112 l-18
-34 -13 66 c-13 63 -12 67 8 89 11 12 21 25 21 29 0 16 -17 5 -56 -35z m226
-41 c-15 -67 -65 -111 -152 -135 l-38 -10 16 31 c32 62 67 99 118 123 28 13
54 24 57 24 4 0 4 -15 -1 -33z m-216 -29 c3 -13 6 -42 6 -65 0 -36 -5 -45 -38
-71 l-38 -31 -12 45 c-17 63 -15 79 14 113 30 37 59 40 68 9z"/>
<path d="M833 6837 c-18 -21 -35 -53 -38 -74 -12 -72 -31 -125 -61 -168 -43
-60 -41 -73 26 -195 10 -19 19 -38 20 -41 0 -3 -17 -17 -39 -31 l-38 -25 6 31
c4 17 2 53 -4 80 l-11 49 -31 -36 c-39 -44 -56 -96 -51 -150 3 -23 1 -52 -3
-64 -13 -35 16 -18 54 32 l32 42 1 -41 c1 -23 5 -62 9 -88 l7 -47 46 34 c51
40 66 44 58 15 -3 -11 -9 -29 -12 -40 -3 -11 -14 -20 -25 -20 -10 0 -33 -13
-50 -28 -27 -24 -32 -36 -35 -87 -6 -82 -8 -96 -23 -123 -21 -39 -49 -132 -39
-132 5 0 4 -9 -2 -19 -5 -11 -10 -42 -10 -70 0 -28 -4 -51 -10 -51 -5 0 -10 5
-10 12 0 6 -18 33 -40 60 -36 42 -40 52 -35 85 l5 38 -15 -30 c-8 -16 -14 -39
-15 -50 0 -11 -7 -31 -15 -45 -23 -39 -19 -94 9 -127 23 -27 24 -31 11 -79 -7
-28 -23 -71 -34 -94 -12 -24 -21 -62 -21 -85 0 -23 -5 -56 -11 -72 -15 -44 9
-95 60 -128 48 -32 58 -57 37 -90 -9 -14 -18 -42 -19 -62 -2 -21 -8 -48 -15
-60 -25 -44 -15 -90 29 -137 39 -43 40 -46 30 -84 -12 -44 -6 -93 18 -137 9
-16 19 -41 22 -55 5 -24 6 -23 23 15 10 22 20 64 23 93 6 56 12 62 30 33 10
-15 9 -25 -2 -48 -7 -15 -18 -57 -23 -93 -5 -36 -15 -79 -22 -96 -18 -42 -6
-81 36 -120 20 -20 32 -38 28 -47 -9 -24 14 -94 42 -127 24 -28 26 -38 26
-127 0 -92 1 -97 27 -122 16 -14 43 -35 62 -46 26 -16 35 -29 40 -58 6 -38 52
-97 75 -97 7 0 26 -12 43 -26 l31 -26 2 54 c0 29 0 62 -1 73 -2 27 -45 69 -92
90 -34 16 -39 22 -39 52 0 50 -14 70 -75 104 -43 24 -55 36 -55 55 0 21 3 23
20 14 10 -6 24 -18 30 -28 19 -30 6 89 -15 132 -10 21 -33 47 -51 58 l-33 19
15 41 c25 71 19 94 -36 152 -27 29 -47 56 -43 60 4 4 28 -16 55 -44 47 -50 48
-50 54 -25 3 14 9 25 13 25 6 0 40 -49 58 -82 7 -14 13 -9 33 30 24 45 25 45
28 19 2 -15 -6 -47 -17 -70 -26 -54 -20 -79 36 -141 23 -26 43 -53 43 -58 0
-6 -9 1 -21 16 -17 21 -89 66 -107 66 -9 0 11 -76 29 -112 11 -21 37 -50 60
-65 27 -18 37 -29 29 -37 -30 -30 3 -138 59 -190 17 -17 31 -36 31 -43 0 -8 4
-12 9 -8 6 3 13 -10 17 -29 7 -39 58 -126 73 -126 5 0 13 -9 16 -20 21 -68 35
48 15 122 -12 43 -89 115 -102 95 -4 -7 -8 8 -8 33 -1 54 -30 124 -59 140 -15
7 -21 21 -21 43 0 18 -4 47 -10 66 -8 28 -5 45 16 98 31 78 27 99 -28 159 -36
39 -40 48 -35 79 3 19 2 35 -3 35 -4 0 -11 11 -14 24 -3 13 -21 46 -40 73 -32
47 -33 51 -20 82 10 24 11 32 1 28 -6 -2 -16 -19 -22 -38 -6 -19 -16 -44 -23
-57 l-13 -23 -44 44 c-43 42 -44 44 -33 80 9 30 14 35 25 25 8 -6 21 -28 30
-47 13 -33 16 -34 23 -16 4 12 20 38 34 59 33 50 33 67 -5 134 -24 42 -29 60
-23 81 5 14 9 37 10 51 2 14 6 37 9 52 11 41 0 70 -44 120 -36 41 -39 48 -31
77 5 17 5 33 0 36 -8 5 -13 -13 -24 -75 -1 -8 -10 -29 -19 -47 -29 -55 -21
-88 39 -156 40 -44 44 -85 13 -113 -12 -10 -25 -30 -31 -43 l-9 -24 -33 33
c-37 35 -38 44 -11 119 18 53 10 74 -49 131 -36 36 -44 50 -40 68 6 22 7 22
26 5 11 -10 27 -31 35 -48 l16 -29 23 53 c35 78 32 100 -22 160 -33 36 -44 56
-39 69 6 14 11 12 39 -20 l32 -36 23 59 c28 73 24 96 -30 154 -37 40 -41 48
-35 81 5 24 4 34 -3 30 -6 -4 -13 -23 -16 -44 -4 -20 -14 -51 -22 -68 -9 -18
-14 -47 -12 -70 l4 -41 -42 46 c-43 47 -50 65 -34 90 7 11 10 9 16 -8 10 -31
18 -26 39 27 25 62 42 80 87 94 63 18 83 48 87 128 3 56 8 70 22 75 21 7 47
35 33 35 -6 0 -27 -11 -47 -25 -49 -33 -56 -32 -22 4 20 21 30 43 34 77 3 32
12 54 25 65 16 12 22 32 26 90 l6 74 47 25 c55 29 68 52 68 125 0 51 2 56 37
80 21 14 31 25 22 25 -9 0 -32 -11 -51 -23 -19 -13 -47 -27 -62 -31 -15 -4
-38 -17 -50 -30 l-23 -22 -13 49 c-12 47 -12 49 16 78 15 16 23 29 17 29 -5 0
-18 -9 -28 -20 -33 -36 -35 -21 -5 27 36 57 37 85 5 142 l-25 43 39 43 c54 58
69 111 50 172 l-14 46 -32 -36z m39 -56 c-1 -54 -42 -129 -63 -115 -22 13 -3
122 27 156 23 25 37 10 36 -41z m-82 -136 c0 -8 -4 -15 -10 -15 -5 0 -7 7 -4
15 4 8 8 15 10 15 2 0 4 -7 4 -15z m36 -133 c4 -15 -2 -36 -20 -63 l-27 -40
-18 23 c-49 63 -54 111 -15 153 l26 29 24 -40 c14 -21 27 -49 30 -62z m-130
-117 c10 -40 -4 -88 -36 -125 l-29 -35 -1 60 c0 88 50 164 66 100z m111 -134
c5 -47 4 -51 -28 -80 -18 -17 -36 -31 -40 -31 -12 0 -29 51 -29 86 0 45 14 70
48 88 33 18 40 9 49 -63z m133 7 c0 -57 -18 -89 -60 -110 -19 -9 -38 -17 -42
-18 -13 0 -9 93 5 120 10 21 58 47 90 49 4 1 7 -18 7 -41z m-120 -213 c0 -61
-22 -99 -69 -117 l-41 -16 0 55 c0 47 4 59 29 84 17 17 40 29 55 29 23 0 26
-4 26 -35z m-60 -171 c0 -30 -8 -45 -44 -80 -57 -58 -69 -57 -51 2 13 43 67
114 87 114 4 0 8 -16 8 -36z m-20 -173 c0 -58 -18 -84 -74 -106 -36 -15 -38
-15 -32 0 3 9 6 37 6 61 0 53 33 94 75 94 23 0 25 -3 25 -49z m-180 -73 c34
-46 37 -70 15 -122 l-16 -37 -39 46 c-24 28 -40 56 -40 72 0 26 29 83 42 83 4
0 21 -19 38 -42z m123 -195 c40 -43 47 -71 29 -118 -8 -22 -17 -42 -19 -44 -5
-6 -53 41 -53 51 0 5 -7 16 -15 24 -19 20 -19 47 0 84 19 37 25 37 58 3z
m-131 -60 c46 -50 52 -70 33 -119 -9 -24 -19 -44 -21 -44 -13 0 -73 73 -78 95
-7 26 17 95 32 95 4 0 20 -12 34 -27z m-28 -145 c9 -5 16 -13 16 -19 0 -6 -16
2 -35 17 -21 16 -35 35 -35 48 0 19 2 18 19 -8 11 -16 27 -33 35 -38z m166
-69 c10 -23 9 -36 -6 -72 l-18 -43 -31 35 c-59 66 -65 100 -27 144 15 17 17
16 43 -9 15 -14 33 -39 39 -55z m-150 21 c30 -28 32 -34 26 -72 -9 -58 -12
-60 -51 -36 -61 35 -81 89 -55 139 13 23 29 16 80 -31z m265 -165 c18 -32 18
-35 1 -80 l-18 -47 -30 29 c-43 40 -61 85 -47 120 19 50 29 56 54 33 12 -12
31 -36 40 -55z m-150 -58 c12 -21 15 -38 10 -65 -4 -20 -10 -31 -12 -24 -7 17
-23 15 -23 -4 0 -27 -57 22 -70 60 -9 27 -8 40 6 69 l17 36 27 -22 c15 -12 35
-35 45 -50z m-67 -94 c49 -48 38 -55 -13 -7 -25 23 -45 50 -44 60 0 18 1 18
12 -1 7 -11 27 -34 45 -52z m2 -40 c22 -29 22 -49 0 -108 l-11 -30 -40 42
c-43 46 -50 83 -23 121 18 26 39 19 74 -25z m228 -62 c28 -50 28 -89 -2 -129
l-23 -32 -27 40 c-32 48 -34 97 -5 134 11 14 24 26 28 26 4 0 17 -17 29 -39z
m-98 -78 c0 -13 -4 -23 -10 -23 -5 0 -13 -15 -18 -32 l-9 -33 -36 37 c-42 41
-49 86 -21 127 l16 23 39 -38 c23 -22 39 -48 39 -61z m-104 -50 c19 -30 23
-101 6 -142 l-9 -25 -17 26 c-21 33 -30 87 -22 132 8 43 18 45 42 9z m133
-114 c32 -31 39 -72 25 -126 -8 -30 -13 -29 -57 13 -39 38 -49 83 -27 125 14
26 23 24 59 -12z m140 -66 c16 -32 14 -61 -10 -99 l-20 -34 -23 28 c-53 64
-58 96 -20 141 l26 31 17 -22 c10 -13 23 -33 30 -45z m-175 -113 c40 -44 43
-63 21 -116 l-15 -35 -38 38 c-22 21 -42 48 -46 60 -7 23 17 93 32 93 5 0 26
-18 46 -40z m286 -138 c0 -17 -6 -44 -13 -61 l-14 -32 -41 45 c-47 51 -52 80
-24 128 l17 29 38 -40 c25 -27 37 -49 37 -69z m-234 -70 c26 -20 49 -64 59
-111 l7 -34 -28 21 c-54 38 -94 95 -94 133 0 15 33 10 56 -9z m148 -23 c32
-25 43 -44 55 -98 l9 -41 -30 18 c-53 30 -112 142 -75 142 8 0 26 -9 41 -21z
m-51 -221 c24 -17 27 -25 27 -78 l0 -59 -45 26 c-70 39 -87 71 -65 128 11 28
21 26 83 -17z m138 19 c27 -21 47 -61 54 -109 7 -55 -1 -59 -37 -20 -31 32
-48 72 -48 113 0 32 6 35 31 16z m-43 -164 c58 -36 72 -55 72 -98 0 -53 -5
-58 -44 -38 -57 29 -76 53 -76 98 0 37 6 55 17 55 2 0 16 -8 31 -17z m179 -46
c21 -19 49 -114 41 -138 -5 -16 -58 41 -74 78 -8 18 -14 46 -14 63 0 34 7 33
47 -3z"/>
<path d="M6340 6826 c-17 -62 -2 -114 51 -171 l39 -43 -25 -43 c-32 -57 -31
-86 5 -140 37 -55 38 -71 2 -36 -38 36 -53 34 -18 -2 28 -29 28 -30 15 -80
-11 -46 -14 -49 -26 -31 -7 10 -29 24 -49 30 -20 7 -52 23 -72 36 -19 13 -42
24 -51 24 -9 0 1 -11 22 -25 35 -24 37 -29 37 -80 0 -73 13 -96 68 -125 l47
-25 6 -72 c4 -54 11 -79 26 -95 11 -13 23 -43 26 -67 4 -28 15 -53 33 -72 34
-36 27 -37 -22 -4 -20 14 -41 25 -47 25 -14 0 12 -28 33 -35 14 -4 18 -20 22
-76 6 -81 25 -109 87 -127 45 -14 62 -32 87 -94 10 -27 22 -48 25 -48 3 0 11
10 16 23 11 22 11 22 18 -6 6 -24 2 -34 -27 -65 -20 -20 -40 -46 -46 -56 -8
-15 -9 -8 -5 29 4 33 1 58 -10 79 -8 17 -18 48 -22 68 -3 21 -10 40 -16 44 -7
4 -8 -6 -3 -30 6 -33 2 -41 -35 -81 -54 -58 -58 -81 -30 -154 l23 -59 32 36
c28 32 33 34 39 20 5 -13 -6 -33 -39 -69 -54 -60 -57 -87 -22 -164 l23 -50 13
27 c7 15 23 34 36 42 20 14 23 14 29 -1 4 -12 -8 -31 -41 -62 -59 -58 -67 -79
-49 -132 27 -75 26 -84 -11 -119 l-33 -33 -9 24 c-6 13 -19 33 -31 43 -31 28
-27 69 13 113 60 68 68 100 39 156 -9 18 -17 39 -18 47 -4 40 -18 80 -25 75
-5 -3 -4 -19 2 -35 9 -27 6 -34 -31 -77 -46 -51 -57 -80 -46 -121 3 -15 7 -38
9 -52 1 -14 5 -37 10 -51 6 -21 1 -39 -23 -81 -38 -68 -39 -84 -1 -139 16 -24
30 -50 30 -56 0 -25 18 -13 25 16 3 16 14 36 24 45 16 14 18 13 30 -20 13 -35
12 -36 -32 -80 l-45 -44 -16 25 c-9 13 -16 32 -16 40 0 21 -18 55 -30 55 -5 0
-3 -14 4 -32 13 -30 12 -34 -20 -81 -19 -27 -37 -60 -40 -73 -3 -13 -10 -24
-14 -24 -5 0 -5 -14 0 -32 9 -29 6 -35 -35 -79 -59 -63 -63 -83 -31 -162 21
-53 24 -70 16 -98 -6 -19 -10 -47 -10 -62 0 -19 -10 -38 -29 -56 -31 -29 -51
-84 -51 -141 0 -20 -4 -30 -8 -23 -13 20 -90 -52 -102 -95 -20 -74 -6 -190 15
-122 3 11 11 20 16 20 17 0 67 90 74 132 5 29 10 37 16 27 6 -9 9 -10 9 -2 0
6 18 32 39 57 47 55 65 105 58 160 -6 39 -4 44 24 60 17 10 39 32 50 50 23 36
42 103 34 115 -8 14 -80 -25 -104 -55 -12 -15 -21 -22 -21 -17 0 6 18 31 40
55 58 67 65 91 40 144 -12 24 -20 56 -18 71 3 26 4 26 28 -19 20 -39 26 -44
33 -30 18 33 52 82 58 82 4 0 10 -11 13 -25 6 -25 7 -25 54 25 27 28 51 48 55
44 4 -4 -16 -31 -43 -60 -55 -58 -61 -81 -36 -152 l15 -41 -33 -19 c-18 -11
-41 -37 -51 -58 -21 -43 -34 -162 -15 -132 6 10 20 22 30 28 17 9 20 7 20 -14
0 -19 -12 -31 -55 -55 -61 -34 -75 -54 -75 -104 0 -30 -5 -36 -39 -52 -47 -21
-90 -63 -92 -90 -1 -11 -1 -44 -1 -74 l2 -54 23 20 c12 11 36 27 52 36 44 22
67 52 74 94 5 29 14 43 40 58 19 11 46 32 62 46 26 25 27 30 27 122 0 89 2 99
26 127 28 33 51 103 42 127 -4 9 8 27 28 47 42 39 54 78 36 120 -7 17 -17 60
-22 96 -5 36 -16 78 -23 93 -11 22 -12 33 -2 48 22 36 32 27 33 -30 2 -64 35
-154 42 -112 2 14 10 34 17 45 23 35 34 102 24 147 -9 40 -8 43 32 86 37 41
40 48 36 86 -9 75 -28 149 -44 174 -20 30 -7 58 40 88 46 29 72 86 58 127 -6
17 -11 50 -11 73 0 23 -9 61 -21 85 -11 23 -27 66 -34 94 -13 48 -12 52 11 79
28 33 32 88 9 127 -8 14 -15 34 -15 45 -1 11 -7 34 -15 50 l-15 30 5 -37 c5
-33 1 -44 -35 -89 -22 -28 -40 -55 -40 -60 0 -5 -4 -9 -10 -9 -5 0 -10 23 -10
51 0 28 -5 60 -11 71 -10 18 -9 20 6 14 16 -6 16 -5 1 18 -9 14 -16 31 -16 38
0 7 -10 33 -22 58 -24 51 -26 63 -32 145 -3 51 -8 63 -35 87 -17 15 -40 28
-50 28 -11 0 -22 8 -25 18 -2 9 -7 27 -11 40 -9 31 5 28 57 -13 l46 -34 7 47
c4 26 8 65 9 88 l1 41 32 -42 c38 -50 67 -67 54 -32 -4 12 -6 41 -3 64 5 54
-12 106 -51 150 l-31 35 -12 -47 c-6 -27 -8 -61 -4 -80 l7 -32 -38 25 c-22 14
-39 28 -39 31 1 3 10 22 20 41 56 102 62 119 50 155 -6 18 -17 38 -24 45 -16
13 -52 109 -61 163 -4 23 -19 53 -39 74 l-33 36 -13 -47z m67 -43 c15 -37 18
-123 4 -123 -27 0 -76 102 -65 136 15 48 13 47 31 33 9 -8 22 -28 30 -46z m30
-145 c-3 -8 -6 -5 -6 6 -1 11 2 17 5 13 3 -3 4 -12 1 -19z m47 -60 c28 -40 19
-89 -25 -146 l-18 -23 -27 40 c-29 44 -28 64 6 119 23 38 43 41 64 10z m86
-190 c20 -33 29 -148 13 -148 -13 0 -53 69 -59 100 -7 35 2 80 16 80 6 0 19
-15 30 -32z m-70 -97 c13 -26 13 -84 -2 -116 -14 -32 -17 -31 -56 4 -35 32
-39 59 -21 124 l10 37 29 -15 c16 -8 34 -24 40 -34z m-162 4 c30 -9 52 -54 52
-110 0 -50 -1 -51 -50 -27 -42 21 -60 53 -60 110 0 46 -3 45 58 27z m143 -234
c25 -25 29 -37 29 -84 l0 -55 -41 16 c-47 18 -69 56 -69 117 0 31 3 35 26 35
15 0 38 -12 55 -29z m32 -180 c31 -35 64 -108 53 -119 -8 -7 -44 18 -75 53
-22 25 -31 46 -31 70 0 19 4 35 9 35 5 0 25 -18 44 -39z m34 -136 c26 -18 43
-66 41 -117 l-2 -37 -35 15 c-53 21 -71 48 -71 105 0 44 2 49 23 49 12 0 32
-7 44 -15z m178 -95 c24 -46 18 -75 -25 -125 l-39 -46 -16 37 c-8 20 -15 46
-15 58 0 23 55 106 71 106 4 0 15 -13 24 -30z m-130 -210 c19 -37 19 -64 0
-84 -8 -8 -15 -19 -15 -24 0 -10 -49 -57 -53 -51 -12 17 -27 65 -27 87 0 27
52 102 70 102 5 0 16 -13 25 -30z m132 -64 c9 -20 13 -44 10 -58 -6 -22 -68
-98 -81 -98 -2 0 -12 20 -21 44 -14 36 -15 48 -5 67 15 29 61 79 72 79 5 0 16
-15 25 -34z m-8 -137 c-44 -36 -51 -28 -10 10 17 16 32 35 32 43 1 7 4 4 6 -6
4 -14 -5 -28 -28 -47z m-85 -45 c7 -28 -15 -76 -53 -115 l-27 -26 -18 43 c-21
50 -16 72 26 120 29 32 32 34 48 19 10 -9 21 -27 24 -41z m136 -22 c0 -33 -17
-56 -78 -104 -21 -17 -22 -17 -32 24 -16 57 -7 81 42 117 40 29 44 30 55 14 7
-9 13 -32 13 -51z m-264 -118 c12 -29 12 -39 0 -66 -7 -18 -27 -46 -44 -61
l-30 -29 -17 47 c-20 51 -16 69 30 123 30 36 41 34 61 -14z m159 -76 c8 -32
-15 -79 -49 -102 -23 -14 -26 -14 -26 -1 0 18 -16 20 -23 3 -2 -7 -8 4 -12 25
-8 41 7 72 54 113 24 20 26 21 38 5 6 -10 15 -29 18 -43z m-19 -112 c-25 -23
-46 -37 -46 -30 0 6 11 19 25 28 13 9 32 31 42 49 13 25 18 28 21 14 2 -12
-13 -33 -42 -61z m74 -57 c0 -21 -12 -43 -39 -72 l-40 -42 -11 30 c-26 69 -25
82 15 122 l37 37 19 -23 c11 -13 19 -36 19 -52z m-261 -25 c29 -37 27 -86 -5
-134 l-27 -40 -23 32 c-13 17 -24 45 -24 61 0 29 37 107 51 107 4 0 17 -12 28
-26z m151 -71 c0 -27 -8 -43 -37 -71 l-36 -37 -9 33 c-5 17 -13 32 -18 32 -22
0 -8 42 27 81 l37 41 18 -22 c10 -12 18 -38 18 -57z m37 -135 c-2 -26 -12 -59
-22 -75 -17 -25 -19 -26 -26 -8 -4 11 -8 45 -8 76 -1 44 4 60 21 79 l21 23 10
-24 c5 -13 7 -45 4 -71z m-117 -37 c22 -42 12 -87 -27 -125 -44 -42 -49 -44
-56 -13 -13 64 -8 95 24 126 36 36 45 38 59 12z m-100 -92 c0 -24 -15 -54 -46
-91 l-23 -28 -20 34 c-28 44 -26 70 7 123 l27 44 28 -31 c15 -17 27 -40 27
-51z m145 -94 c19 -43 7 -78 -41 -122 l-35 -33 -15 35 c-7 19 -14 43 -14 55 0
20 65 100 82 100 5 0 16 -16 23 -35z m-245 -118 c0 -18 -14 -42 -42 -73 l-41
-45 -14 32 c-22 53 -16 85 24 129 l36 41 18 -28 c11 -15 19 -40 19 -56z m180
-86 c0 -38 -40 -95 -94 -133 l-28 -21 7 34 c10 47 33 91 59 111 23 19 56 24
56 9z m-155 -38 c-10 -42 -49 -96 -84 -116 -17 -10 -31 -16 -31 -14 0 2 7 26
15 54 16 52 61 103 92 103 12 0 14 -7 8 -27z m91 -210 c9 -49 -9 -80 -68 -115
l-48 -27 0 60 0 59 47 30 c26 17 50 30 55 30 4 0 10 -17 14 -37z m-196 -3 c0
-41 -22 -90 -54 -119 l-26 -24 0 41 c0 51 12 84 41 111 31 28 39 26 39 -9z
m54 -146 c22 -57 -2 -103 -70 -137 -39 -20 -44 -15 -44 38 0 43 12 60 70 98
32 20 37 21 44 1z m-183 -94 c-11 -36 -54 -90 -72 -90 -6 0 -8 12 -5 30 3 17
9 43 12 60 3 16 20 42 37 56 l32 27 3 -24 c2 -13 -1 -39 -7 -59z"/>
<path d="M631 6179 c-31 -41 -48 -112 -38 -151 4 -13 -2 -32 -13 -48 -11 -15
-23 -45 -28 -68 -9 -38 -6 -62 15 -152 l9 -35 18 28 c44 67 56 139 31 188 -15
29 -15 31 10 61 33 39 52 76 56 108 4 35 -11 110 -22 110 -5 0 -22 -18 -38
-41z m43 -11 c3 -13 6 -34 6 -49 0 -30 -61 -130 -68 -111 -9 29 5 128 22 155
22 33 32 34 40 5z m-63 -230 c16 -30 13 -89 -7 -134 l-16 -39 -14 30 c-16 37
-18 106 -2 140 14 31 24 32 39 3z"/>
<path d="M6534 6178 c-13 -74 -1 -114 51 -176 25 -30 25 -32 10 -61 -25 -49
-14 -121 30 -188 l18 -27 18 71 c18 78 13 132 -18 179 -10 15 -16 49 -17 89
-1 54 -6 71 -31 106 -40 57 -52 58 -61 7z m58 -28 c12 -23 18 -55 18 -95 l-1
-60 -24 30 c-34 40 -48 89 -40 131 7 42 22 40 47 -6z m56 -215 c16 -34 14
-103 -2 -140 l-14 -30 -16 37 c-18 42 -21 110 -6 139 14 26 25 24 38 -6z"/>
<path d="M1070 3967 c1 -23 9 -56 18 -73 18 -33 98 -124 109 -124 12 0 -7 121
-26 158 -12 23 -34 45 -60 59 l-41 22 0 -42z m55 -3 c37 -24 75 -144 46 -144
-27 0 -91 106 -91 153 0 12 19 8 45 -9z"/>
<path d="M6106 3985 c-21 -12 -47 -37 -56 -56 -19 -37 -35 -132 -25 -148 3 -6
30 17 60 50 54 60 70 99 63 151 l-3 25 -39 -22z m34 -20 c0 -42 -66 -145 -92
-145 -13 0 -9 48 7 88 23 55 85 96 85 57z"/>
<path d="M1216 3647 c-3 -14 -4 -31 -2 -39 2 -7 7 -26 11 -41 3 -16 25 -50 49
-75 24 -26 48 -56 54 -67 9 -16 11 -8 11 45 1 83 -25 142 -71 166 -18 9 -36
21 -39 26 -4 6 -9 -1 -13 -15z m69 -43 c26 -28 45 -81 45 -123 0 -25 -1 -24
-36 10 -38 36 -64 84 -64 119 0 28 26 25 55 -6z"/>
<path d="M5991 3665 c-1 -6 -17 -19 -36 -29 -49 -26 -75 -85 -75 -167 l0 -64
19 30 c10 17 31 41 46 55 47 43 73 122 55 165 -5 11 -9 15 -9 10z m-1 -55 c0
-35 -26 -83 -64 -119 -35 -34 -36 -35 -36 -10 0 44 20 96 46 123 32 31 54 34
54 6z"/>
<path d="M1100 3502 c0 -41 97 -132 140 -132 9 0 25 -7 36 -15 10 -8 22 -15
27 -15 11 0 -20 70 -49 107 -30 40 -56 55 -111 63 -35 6 -43 4 -43 -8z m103
-24 c25 -13 80 -92 68 -96 -37 -12 -163 81 -146 108 6 10 47 4 78 -12z"/>
<path d="M6080 3511 c-57 -9 -83 -23 -114 -64 -27 -35 -63 -112 -49 -105 4 2
22 10 38 17 113 49 140 71 165 135 5 14 8 25 7 25 -1 -1 -22 -5 -47 -8z m15
-21 c17 -28 -98 -117 -141 -108 -26 5 44 90 86 105 44 15 47 15 55 3z"/>
<path d="M1400 3496 c0 -8 5 -27 11 -43 6 -15 12 -51 14 -79 l2 -51 -39 7
c-46 9 -42 6 -61 50 -11 25 -16 29 -16 15 -1 -11 8 -37 19 -58 11 -20 20 -48
20 -63 0 -14 5 -34 10 -45 13 -22 61 -49 90 -49 12 0 34 -7 50 -15 34 -18 35
-15 19 54 -5 24 -7 46 -5 49 3 2 23 -5 46 -17 22 -11 40 -17 40 -13 0 4 5 0
10 -8 5 -8 10 -35 10 -60 1 -58 22 -85 85 -109 28 -10 57 -22 66 -25 14 -6 15
1 11 51 -2 32 -10 68 -18 79 -7 12 -41 33 -75 46 -51 19 -64 29 -72 53 -6 16
-16 36 -24 43 -7 7 -13 24 -13 37 0 30 -37 59 -101 80 -42 14 -51 22 -56 46
-6 32 -23 50 -23 25z m117 -101 c38 -16 53 -41 53 -90 0 -30 -3 -35 -17 -31
-10 3 -30 8 -46 12 -39 9 -67 49 -67 96 0 43 1 43 77 13z m-54 -103 c27 -17
31 -22 42 -78 l6 -32 -46 9 c-79 15 -105 41 -105 105 0 23 2 24 38 18 20 -4
49 -14 65 -22z m134 -34 c-3 -7 -5 -2 -5 12 0 14 2 19 5 13 2 -7 2 -19 0 -25z
m120 -75 c33 -15 53 -57 53 -112 0 -20 -3 -22 -12 -13 -7 7 -18 12 -26 12 -57
0 -111 64 -98 115 7 28 18 28 83 -2z"/>
<path d="M5807 3500 c-3 -8 -7 -24 -9 -34 -2 -14 -22 -27 -62 -43 -70 -27 -96
-48 -96 -79 0 -12 -6 -29 -13 -36 -8 -7 -18 -27 -24 -43 -7 -23 -21 -34 -62
-50 -74 -28 -101 -57 -101 -109 0 -22 -3 -52 -7 -65 -6 -24 -6 -24 18 -7 13 9
41 21 63 27 57 15 86 52 86 108 0 25 5 53 10 61 5 8 10 12 10 8 0 -4 18 2 40
13 23 12 43 19 46 17 2 -3 0 -25 -5 -49 -16 -69 -15 -72 19 -54 16 8 38 15 50
15 29 0 77 27 90 49 5 11 10 31 10 45 0 15 9 43 20 63 11 21 20 47 19 58 0 14
-5 10 -16 -15 -19 -44 -15 -41 -61 -50 l-39 -7 2 52 c1 28 8 62 14 74 7 12 11
32 8 44 -3 16 -5 18 -10 7z m-27 -123 c0 -48 -24 -79 -70 -92 -14 -3 -33 -9
-42 -11 -15 -5 -18 1 -18 34 0 49 22 77 75 96 56 20 55 21 55 -27z m80 -81 c0
-64 -32 -93 -118 -110 -33 -6 -34 -6 -27 27 12 59 15 64 53 80 79 33 92 34 92
3z m-233 -38 c-3 -7 -5 -2 -5 12 0 14 2 19 5 13 2 -7 2 -19 0 -25z m-39 -77
c8 -51 -46 -111 -100 -111 -8 0 -19 -5 -26 -12 -9 -9 -12 -7 -12 13 0 55 20
97 53 112 69 32 80 31 85 -2z"/>
<path d="M1146 3368 c3 -13 13 -35 20 -50 8 -15 14 -39 14 -53 0 -54 26 -77
110 -100 25 -7 52 -16 61 -20 15 -6 15 -1 4 48 -19 81 -29 95 -87 112 -28 8
-60 15 -69 15 -11 0 -22 13 -30 35 -14 38 -35 49 -23 13z m141 -84 c24 -9 34
-22 42 -51 17 -59 15 -63 -21 -57 -81 14 -118 48 -118 108 0 23 3 25 33 19 17
-3 46 -11 64 -19z"/>
<path d="M1381 2240 c-359 -76 -615 -367 -638 -725 -20 -324 160 -622 459
-759 202 -93 453 -91 655 4 463 216 595 812 268 1210 -91 111 -230 203 -380
250 -79 25 -286 36 -364 20z m289 -166 c111 -26 206 -79 291 -164 249 -248
251 -637 3 -884 -246 -245 -632 -245 -878 0 -150 149 -216 367 -173 571 48
223 230 415 448 473 91 23 220 25 309 4z"/>
<path d="M1400 1942 c-250 -66 -414 -330 -356 -576 43 -183 181 -327 357 -372
85 -22 223 -15 298 15 193 78 313 254 313 460 0 138 -46 247 -146 347 -124
124 -296 170 -466 126z m246 -16 c230 -61 383 -294 347 -527 -41 -260 -288
-442 -542 -399 -105 17 -196 67 -269 144 -89 95 -132 199 -132 321 0 261 210
473 470 474 41 1 98 -5 126 -13z"/>
<path d="M1389 1877 c-310 -106 -398 -487 -167 -718 94 -94 238 -142 366 -121
340 57 487 459 262 715 -115 130 -298 179 -461 124z m315 -35 c218 -102 303
-379 180 -587 -48 -82 -159 -169 -245 -190 -24 -6 -28 -2 -43 37 -10 24 -27
53 -39 66 -11 12 -15 22 -9 22 17 0 15 83 -3 127 -19 45 -19 43 10 43 36 0 48
37 36 109 -13 76 -9 310 7 338 7 12 12 32 12 45 -1 18 -5 14 -17 -17 -11 -26
-17 -71 -18 -130 0 -49 -4 -101 -8 -115 -4 -14 -1 -59 6 -100 20 -113 18 -118
-56 -116 -57 2 -62 4 -65 26 -3 14 3 29 14 37 10 7 13 13 7 13 -5 0 -18 -9
-28 -20 -15 -17 -16 -24 -6 -46 9 -21 17 -25 41 -22 22 3 31 -1 39 -19 9 -19
8 -23 -5 -23 -9 0 -42 -15 -73 -32 l-56 -33 83 -3 c80 -3 82 -3 82 -27 0 -22
-4 -25 -41 -25 -22 0 -49 5 -61 11 -30 16 -32 4 -2 -16 15 -9 45 -20 67 -23
36 -4 41 -9 63 -55 12 -28 21 -54 18 -59 -7 -11 -110 -10 -163 3 -118 27 -237
124 -289 236 -24 52 -27 70 -27 168 0 103 2 114 31 175 45 94 102 153 189 196
121 60 249 62 369 6z m-162 -557 c5 -24 4 -25 -55 -25 l-61 0 34 25 c19 14 44
25 56 25 15 0 23 -7 26 -25z"/>
<path d="M1345 1714 c-22 -8 -49 -24 -60 -36 -17 -17 -13 -17 26 6 25 14 48
24 50 22 2 -3 34 -6 69 -7 36 -1 75 -8 88 -15 12 -8 22 -10 22 -5 0 16 -84 51
-121 50 -19 0 -52 -7 -74 -15z m93 -1 c-10 -2 -26 -2 -35 0 -10 3 -2 5 17 5
19 0 27 -2 18 -5z"/>
<path d="M1343 1612 c-83 -31 -94 -39 -56 -39 16 -1 62 -4 104 -8 71 -7 78 -6
88 12 14 28 6 33 -53 34 -51 1 -51 1 -17 11 19 5 45 8 58 5 12 -2 20 0 17 4
-10 16 -68 8 -141 -19z m125 -24 c-5 -15 -60 -22 -97 -13 -24 7 -25 8 -6 15
33 14 107 12 103 -2z"/>
<path d="M5561 2239 c-448 -88 -725 -529 -611 -974 87 -340 395 -575 756 -577
215 -1 394 72 545 222 170 168 251 377 236 605 -25 359 -273 646 -623 720 -75
16 -233 18 -303 4z m178 -60 c34 -12 40 -24 16 -33 -23 -8 -18 -40 10 -66 21
-19 25 -33 25 -78 0 -45 -3 -53 -16 -48 -9 3 -40 6 -70 6 -50 0 -54 2 -54 24
0 13 -9 35 -20 49 -24 30 -25 46 -5 93 12 30 30 44 81 64 1 0 15 -5 33 -11z
m-199 -38 c0 -6 -4 -13 -10 -16 -21 -13 -9 -35 30 -55 40 -21 62 -47 75 -88 4
-14 2 -23 -7 -26 -7 -2 -44 -14 -82 -26 l-70 -23 -22 28 c-50 64 -51 165 -1
200 24 16 87 21 87 6z m451 -27 l22 -24 -22 0 c-30 0 -36 -23 -18 -67 13 -35
13 -41 -6 -80 -16 -32 -25 -42 -37 -37 -8 4 -41 16 -72 27 -54 18 -58 22 -58
51 0 17 11 54 24 81 38 82 115 105 167 49z m-674 -91 c-2 -25 2 -28 45 -38 38
-8 52 -17 73 -50 l27 -39 -23 -16 c-13 -8 -40 -29 -60 -47 l-35 -32 -30 18
c-65 40 -99 107 -83 164 17 61 90 95 86 40z m858 -18 c30 -29 34 -59 6 -50
-27 8 -43 -17 -36 -57 6 -29 2 -38 -30 -71 l-36 -37 -59 51 c-51 46 -57 55
-49 75 38 101 146 148 204 89z m-271 -108 c299 -142 369 -529 138 -762 -181
-183 -468 -188 -660 -11 -264 245 -164 683 182 796 49 16 82 19 162 17 92 -3
108 -7 178 -40z m-752 -39 c3 -21 8 -23 58 -21 48 3 59 -1 87 -25 l33 -28 -24
-33 c-13 -18 -30 -46 -36 -62 -15 -34 -37 -37 -95 -10 -84 39 -119 118 -75
174 26 33 47 35 52 5z m1133 -2 c37 -16 55 -42 55 -81 0 -22 -3 -24 -19 -15
-32 16 -39 12 -53 -32 -12 -35 -22 -47 -59 -64 l-44 -21 -12 28 c-6 15 -23 45
-37 65 -23 34 -24 38 -10 60 16 23 106 74 131 74 8 0 29 -6 48 -14z m-1221
-228 c5 -4 28 4 49 17 38 22 41 22 84 8 42 -15 44 -16 37 -47 -4 -17 -10 -49
-13 -71 -5 -36 -10 -41 -41 -49 -45 -11 -115 8 -146 39 -34 34 -40 70 -19 113
15 34 18 35 28 17 5 -11 15 -23 21 -27z m1268 32 c33 0 78 -53 78 -94 0 -40
-12 -53 -30 -31 -18 22 -30 19 -64 -19 -23 -26 -42 -35 -72 -39 l-41 -5 -11
62 c-6 33 -13 68 -17 77 -4 11 4 20 32 32 46 20 74 26 91 21 8 -2 23 -4 34 -4z
m-1118 -207 c2 -10 7 -45 11 -79 6 -59 6 -60 -22 -73 -15 -7 -50 -15 -78 -18
-41 -4 -56 -1 -84 19 -39 26 -55 67 -40 106 9 24 11 25 20 10 15 -28 41 -21
72 17 24 30 34 35 72 35 33 0 45 -4 49 -17z m1119 -7 c48 -20 72 -52 72 -96 0
-20 -7 -45 -15 -55 -13 -15 -15 -15 -32 7 l-17 23 -40 -23 c-37 -20 -44 -21
-86 -10 -30 8 -44 17 -41 25 3 7 11 42 17 78 l11 65 49 0 c27 0 64 -6 82 -14z
m-1055 -213 c29 -61 31 -68 18 -88 -18 -28 -93 -65 -129 -65 -46 0 -77 18 -93
55 -18 44 -13 53 24 47 26 -3 29 0 41 37 9 32 20 46 49 60 20 10 42 19 47 19
6 0 25 -29 43 -65z m979 22 c80 -48 97 -134 34 -182 -24 -18 -31 -16 -31 11 0
30 -14 35 -61 23 -33 -8 -41 -5 -78 21 -24 18 -37 33 -31 37 6 4 25 31 41 61
36 64 58 68 126 29z m-847 -177 l35 -28 -24 -45 c-29 -55 -68 -85 -121 -92
-34 -5 -43 -1 -70 25 -37 38 -38 50 -2 54 25 3 27 7 30 50 2 37 10 54 35 80
l32 34 25 -26 c14 -14 41 -37 60 -52z m741 0 c50 -69 45 -144 -11 -173 -42
-22 -51 -19 -44 11 8 31 -7 44 -53 44 -27 0 -37 7 -60 41 l-27 41 29 22 c17
11 43 33 60 48 29 25 31 26 58 10 16 -10 38 -29 48 -44z m-617 -68 l68 -25 -5
-40 c-9 -89 -58 -145 -124 -145 -28 0 -73 24 -73 39 0 4 11 13 25 19 24 11 24
11 8 55 -15 41 -15 46 3 85 10 23 21 40 24 39 3 -1 36 -13 74 -27z m433 -19
c61 -90 27 -201 -62 -201 -34 0 -46 12 -25 25 20 13 9 34 -29 56 -32 18 -41
29 -46 60 -4 21 -7 42 -6 45 0 8 122 52 136 49 6 -1 20 -16 32 -34z m-187 -30
c15 -29 12 -118 -6 -152 -21 -41 -72 -62 -113 -48 -37 13 -37 16 -10 38 l22
17 -32 37 c-30 33 -32 40 -26 82 l7 45 74 0 c62 0 75 -3 84 -19z"/>
<path d="M5578 1881 c-160 -52 -269 -178 -299 -345 -42 -226 124 -456 360
-497 161 -29 340 52 431 193 142 218 60 508 -176 625 -65 32 -84 36 -166 39
-72 3 -106 0 -150 -15z m257 -18 c42 -12 145 -68 145 -78 0 -2 -18 4 -41 13
-34 13 -50 14 -94 5 -52 -11 -105 -38 -105 -53 0 -4 21 3 47 16 55 28 121 31
166 7 18 -9 38 -17 46 -17 22 -1 79 -87 102 -152 24 -69 26 -187 4 -260 -38
-127 -148 -236 -278 -276 -315 -95 -614 204 -519 518 22 73 86 176 112 180 8
1 33 10 54 19 50 21 111 13 162 -21 41 -28 62 -23 24 7 -37 28 -90 42 -148 38
-29 -2 -52 -3 -52 -1 0 2 30 17 66 34 100 47 202 54 309 21z"/>
<path d="M5465 1738 c-32 -11 -58 -29 -52 -35 2 -2 20 4 40 12 20 8 52 15 72
15 20 0 52 -7 72 -15 52 -22 54 -9 2 15 -48 22 -88 24 -134 8z"/>
<path d="M5808 1724 c-16 -8 -28 -19 -28 -25 0 -5 12 -2 27 8 34 22 118 22
161 0 19 -11 32 -13 32 -7 0 34 -141 52 -192 24z"/>
<path d="M5423 1693 c-36 -18 -43 -39 -15 -47 38 -12 150 -26 205 -26 69 0 71
11 9 55 -53 36 -147 45 -199 18z m143 -8 c19 -8 44 -22 57 -31 21 -15 17 -16
-73 -11 -52 3 -106 10 -120 15 l-25 10 35 16 c44 19 81 20 126 1z"/>
<path d="M5839 1696 c-44 -15 -99 -53 -99 -68 0 -12 216 -5 258 8 35 10 26 33
-20 54 -50 23 -88 24 -139 6z m147 -28 c15 -14 13 -16 -22 -21 -22 -4 -74 -9
-118 -12 -86 -8 -92 0 -28 35 45 25 143 23 168 -2z"/>
<path d="M5670 1551 c0 -17 5 -31 10 -31 6 0 10 11 10 24 0 14 -4 28 -10 31
-6 4 -10 -7 -10 -24z"/>
<path d="M5728 1574 c-5 -4 -8 -19 -8 -33 1 -23 2 -24 11 -8 11 19 9 53 -3 41z"/>
<path d="M5596 1487 c-29 -21 -5 -54 47 -64 33 -7 43 -13 45 -31 2 -12 10 -22
18 -22 11 0 13 6 9 20 -5 15 0 20 22 25 61 13 78 21 81 41 3 21 -23 52 -35 40
-4 -3 1 -12 11 -19 15 -11 16 -15 4 -25 -27 -22 -90 -29 -142 -16 -60 16 -63
19 -41 44 20 23 8 27 -19 7z"/>
<path d="M5613 1349 c-15 -10 -40 -19 -55 -19 -16 0 -28 -4 -28 -10 0 -5 4
-10 9 -10 5 0 31 -18 57 -40 45 -37 53 -40 110 -40 54 0 65 4 100 33 21 19 48
37 59 42 18 7 16 9 -12 15 -18 4 -45 15 -60 25 -40 26 -142 28 -180 4z m165
-12 c17 -14 -1 -26 -43 -29 -16 -1 -4 -4 28 -7 l59 -6 -31 -23 c-47 -35 -121
-36 -169 -3 l-37 26 60 5 60 5 -50 9 c-43 7 -47 10 -33 20 21 15 138 17 156 3z"/>
<path d="M5575 1139 c-10 -15 76 -49 125 -49 44 0 139 35 127 46 -4 4 -22 -1
-41 -10 -48 -22 -133 -21 -173 4 -19 11 -35 15 -38 9z"/>
<path d="M2394 2031 c-38 -23 -67 -63 -84 -116 -7 -22 -20 -48 -29 -59 -15
-18 -15 -18 9 -11 45 13 114 60 131 90 22 38 33 115 16 115 -7 0 -26 -9 -43
-19z m36 -26 c0 -40 -25 -79 -69 -108 -22 -15 -43 -27 -45 -27 -7 0 10 52 27
87 15 29 62 72 80 73 4 0 7 -11 7 -25z"/>
<path d="M4774 2010 c2 -22 13 -54 23 -72 19 -33 86 -80 133 -93 24 -7 24 -7
9 11 -9 11 -20 33 -24 51 -12 61 -90 143 -134 143 -6 0 -9 -17 -7 -40z m75
-18 c32 -33 67 -109 57 -120 -9 -9 -87 51 -101 77 -18 35 -20 81 -3 81 6 0 27
-17 47 -38z"/>
<path d="M4592 1460 c-37 -77 -37 -113 0 -146 19 -18 27 -33 42 -81 6 -19 2
-23 -36 -33 -97 -25 -128 -53 -128 -115 0 -14 -6 -36 -14 -48 -20 -31 -29 -67
-17 -67 5 0 12 14 16 30 5 22 14 32 33 36 122 27 137 38 152 106 6 29 16 55
22 59 7 5 5 16 -7 36 -17 29 -17 30 14 85 39 68 39 94 1 146 -16 23 -30 46
-30 52 0 26 -18 3 -48 -60z m74 -9 c23 -35 25 -44 15 -73 -6 -18 -19 -46 -30
-61 l-18 -28 -27 31 c-15 19 -26 44 -26 61 0 30 38 109 52 109 4 0 19 -18 34
-39z m-36 -273 c0 -7 -5 -30 -11 -51 -11 -40 -36 -57 -106 -70 -30 -6 -33 -4
-33 19 0 57 39 96 110 107 14 2 28 5 33 6 4 0 7 -5 7 -11z"/>
<path d="M2455 1093 c-77 -23 -93 -44 -110 -147 -5 -30 -12 -40 -36 -49 -16
-6 -29 -15 -29 -20 0 -10 37 0 65 18 11 6 36 15 56 19 51 9 78 43 98 125 10
39 15 71 12 70 -3 -1 -28 -8 -56 -16z m31 -29 c-3 -9 -6 -28 -6 -44 0 -44 -44
-90 -87 -90 l-36 0 7 41 c9 57 22 78 59 94 44 20 71 19 63 -1z"/>
<path d="M4716 1071 c18 -110 42 -145 104 -157 19 -4 44 -13 55 -20 28 -17 65
-27 65 -17 0 5 -13 14 -29 20 -24 9 -31 19 -36 49 -18 104 -33 124 -113 147
l-53 15 7 -37z m106 -18 c18 -16 38 -72 38 -105 0 -14 -8 -18 -34 -18 -42 0
-86 46 -86 90 0 16 -3 36 -7 46 -5 15 -2 16 33 10 21 -4 47 -15 56 -23z"/>
<path d="M2532 1011 c-24 -43 -30 -137 -11 -173 6 -11 8 -22 5 -25 -5 -5 -25
36 -41 82 -6 16 -8 17 -13 5 -3 -8 -20 -35 -39 -59 -36 -47 -41 -81 -18 -121
29 -51 36 -50 -287 -53 l-303 -2 311 -3 c327 -2 339 -4 309 -45 -11 -16 -71
-17 -839 -17 l-826 0 0 30 0 30 203 3 202 2 -212 3 -213 2 0 -34 c0 -35 -13
-46 -52 -46 -35 0 -88 -32 -103 -61 -8 -15 -15 -52 -15 -82 0 -66 -14 -85 -65
-89 l-40 -3 -3 -62 -3 -63 3131 0 3131 0 -3 63 -3 62 -41 3 c-49 4 -64 27 -64
98 0 25 -7 58 -15 73 -15 29 -68 61 -103 61 -39 0 -52 11 -52 46 l0 34 -212
-2 -213 -3 203 -2 202 -3 0 -30 0 -30 -826 0 c-768 0 -828 1 -839 17 -30 41
-18 43 309 45 l311 3 -304 2 c-283 3 -303 4 -298 21 32 97 32 98 1 143 -16 23
-34 51 -41 63 -12 20 -12 20 -18 1 -17 -50 -28 -76 -36 -81 -5 -3 -4 7 2 23
17 46 13 127 -10 172 -12 23 -23 41 -26 41 -12 0 -45 -83 -45 -114 0 -20 14
-62 33 -98 18 -35 31 -71 29 -80 -2 -9 4 -30 12 -47 9 -16 16 -33 16 -36 0 -3
-46 -4 -102 -3 l-103 3 -3 53 -3 52 -73 0 -73 0 -49 51 c-27 28 -71 62 -99 75
l-50 24 -545 0 -545 0 -50 -24 c-27 -13 -72 -47 -99 -75 l-49 -51 -73 0 -73 0
-3 -52 -3 -53 -102 -3 c-57 -1 -103 0 -103 3 0 3 7 20 16 36 8 17 14 38 12 47
-2 9 11 45 29 80 18 35 33 78 33 95 0 31 -30 117 -41 117 -3 0 -15 -17 -27
-39z m48 -35 c12 -38 2 -96 -24 -131 -14 -19 -15 -19 -25 8 -15 39 -14 91 4
133 17 41 29 38 45 -10z m2106 9 c17 -41 18 -90 2 -135 l-11 -33 -19 38 c-23
43 -27 110 -9 143 16 29 19 28 37 -13z m-1532 -100 c-15 -22 -31 -36 -21 -17
2 4 7 15 10 25 4 9 11 17 17 17 6 0 3 -11 -6 -25z m66 19 c0 -3 -11 -22 -25
-42 -14 -20 -25 -42 -25 -48 0 -15 -28 -26 -35 -14 -3 4 5 21 18 37 13 15 29
38 36 51 10 20 31 31 31 16z m33 -16 c-27 -30 -45 -66 -39 -77 3 -4 40 -7 82
-6 68 1 79 4 96 25 11 13 22 36 25 52 5 26 23 40 23 18 0 -24 -32 -87 -51 -98
-27 -17 -108 -26 -153 -18 -29 6 -36 12 -36 29 0 21 53 97 67 97 4 0 -3 -10
-14 -22z m67 11 c0 -6 -5 -19 -10 -30 -16 -29 2 -23 35 11 33 34 45 38 45 12
0 -41 -25 -57 -89 -57 -34 0 -61 1 -61 2 0 1 14 18 31 38 31 35 49 44 49 24z
m153 -41 c-6 -51 -18 -72 -35 -62 -4 3 -1 18 7 34 8 16 15 37 15 48 0 16 8 32
16 32 2 0 0 -24 -3 -52z m43 15 c-10 -59 1 -67 94 -68 93 -1 107 10 95 74 -5
27 -4 33 5 25 6 -6 14 -29 17 -51 8 -57 -11 -68 -117 -68 -116 0 -140 22 -110
99 14 38 23 32 16 -11z m77 7 c14 -38 22 -38 36 1 15 43 45 36 49 -11 l3 -35
-71 0 -70 0 0 31 c0 53 35 62 53 14z m178 -31 c9 -27 13 -51 10 -54 -16 -9
-28 14 -34 64 -7 63 1 59 24 -10z m32 33 c3 -16 14 -39 25 -52 17 -21 28 -24
96 -25 42 -1 79 2 82 6 6 10 -10 44 -35 75 -9 11 -1 5 17 -15 44 -47 43 -78
-4 -87 -52 -10 -133 2 -157 23 -19 18 -47 72 -47 93 0 22 18 8 23 -18z m72 -2
c35 -37 48 -39 33 -5 -16 36 -2 43 28 14 51 -47 48 -54 -18 -54 -63 0 -88 16
-88 57 0 26 12 22 45 -12z m156 8 c7 -13 23 -36 36 -51 13 -16 21 -33 18 -37
-8 -12 -35 -1 -35 15 0 6 -14 31 -30 53 -21 30 -26 42 -15 42 8 0 20 -10 26
-22z m52 -10 c6 -22 5 -22 -8 -4 -17 22 -20 40 -6 32 5 -3 11 -16 14 -28z
m-986 -10 c-13 -31 -16 -33 -65 -33 -29 0 -52 1 -52 3 0 13 23 42 29 37 5 -3
22 2 37 10 16 8 37 15 47 15 15 0 16 -3 4 -32z m1077 17 c15 -8 32 -13 37 -10
6 5 29 -24 29 -37 0 -2 -23 -3 -52 -3 -49 0 -52 2 -65 33 -12 29 -11 32 4 32
10 0 31 -7 47 -15z m-1654 -133 c0 -32 -33 -82 -54 -82 -16 0 -48 70 -48 103
0 14 12 41 27 61 l27 36 24 -44 c13 -25 24 -58 24 -74z m2281 38 c4 -41 -27
-120 -47 -120 -20 0 -54 50 -54 81 0 16 10 49 23 74 l22 44 27 -32 c15 -18 28
-39 29 -47z m-1803 14 c21 4 44 2 52 -4 11 -7 -2 -10 -47 -10 -61 0 -81 9 -67
31 5 8 10 6 16 -5 8 -14 18 -16 46 -12z m1288 -3 c-4 -6 -34 -11 -67 -11 -41
0 -58 3 -53 11 4 7 22 9 50 4 36 -5 45 -3 50 10 4 11 10 13 16 7 6 -6 7 -15 4
-21z m204 -81 l0 -40 -880 0 -880 0 0 40 0 40 880 0 880 0 0 -40z m260 -86 c6
-14 10 -27 10 -30 0 -2 -517 -4 -1150 -4 -632 0 -1150 2 -1150 4 0 3 4 16 10
30 l10 26 1130 0 1130 0 10 -26z m1806 -73 c48 -22 61 -49 66 -138 l4 -63
-3016 0 -3016 0 4 63 c2 34 11 76 19 94 31 67 -215 62 2993 62 2805 0 2906 0
2946 -18z m164 -266 l0 -45 -3110 0 -3110 0 0 45 0 45 3110 0 3110 0 0 -45z"/>
<path d="M2286 855 c-47 -16 -89 -56 -112 -104 -9 -19 -26 -43 -38 -53 l-21
-17 25 5 c122 27 164 62 194 162 8 25 5 26 -48 7z m6 -74 c-20 -27 -87 -71
-110 -71 -9 0 -7 11 7 38 22 44 56 77 91 90 21 8 26 6 28 -11 2 -11 -5 -32
-16 -46z"/>
<path d="M4889 851 c6 -11 11 -28 11 -39 0 -46 73 -101 159 -121 l41 -9 -20
27 c-12 14 -35 46 -53 71 -34 46 -72 73 -120 84 -26 6 -27 5 -18 -13z m115
-63 c35 -40 52 -78 35 -78 -21 0 -88 41 -108 66 -12 15 -21 37 -21 50 0 21 2
22 30 12 17 -5 45 -28 64 -50z"/>
</g>
</svg>
